<svg xmlns="http://www.w3.org/2000/svg" viewBox="0 0 193.11 84.39"><defs><style>.cls-1{fill:#003878;}.cls-2{fill:#ffad00;}.cls-3{fill:#f5aa1c;}.cls-4{fill:#fff;}</style></defs><g id="Layer_2" data-name="Layer 2"><g id="Layer_1-2" data-name="Layer 1"><rect class="cls-1" y="16.1" width="193.09" height="68.29" rx="7.8"/><rect class="cls-2" y="53.33" width="193.11" height="23.02"/><path class="cls-1" d="M29.31,67.78a2.61,2.61,0,0,1,1.74-2.45v0a2.38,2.38,0,0,1-1.41-2.13c0-1.65,1.49-2.74,3.43-2.74,2.28,0,3.23,1.32,3.23,2.5a2.37,2.37,0,0,1-1.41,2.14v0a2.58,2.58,0,0,1,1.78,2.43c0,1.76-1.48,2.95-3.75,2.95C30.45,70.49,29.31,69.09,29.31,67.78Zm5-.08c0-.85-.63-1.36-1.53-1.6a1.47,1.47,0,0,0-1.18,1.45A1.32,1.32,0,0,0,33,68.91,1.23,1.23,0,0,0,34.35,67.7Zm-2.56-4.61c0,.65.59,1.07,1.37,1.31a1.33,1.33,0,0,0,1-1.24A1.11,1.11,0,0,0,33,62,1.08,1.08,0,0,0,31.79,63.09Z"/><path class="cls-1" d="M50.58,70.32l-.66-.72a4.4,4.4,0,0,1-2.77.89c-2.44,0-3.52-1.46-3.52-2.86a3.21,3.21,0,0,1,1.92-2.9v-.06a3.09,3.09,0,0,1-.77-1.94,2.77,2.77,0,0,1,3-2.67,2.45,2.45,0,0,1,2.74,2.37c0,1-.6,1.88-2,2.59v.06c.58.64,1.19,1.38,1.69,1.89a6.63,6.63,0,0,0,.85-2.46h2a7.59,7.59,0,0,1-1.68,3.84c.57.64,1.16,1.3,1.79,2Zm-1.72-2c-.63-.63-1.45-1.54-2.28-2.47a1.67,1.67,0,0,0-.79,1.39,1.59,1.59,0,0,0,1.68,1.59A2,2,0,0,0,48.86,68.33Zm-2-5.81A2.16,2.16,0,0,0,47.51,64c.74-.51,1.11-.9,1.11-1.48a.92.92,0,0,0-.88-1A1,1,0,0,0,46.82,62.52Z"/><path class="cls-1" d="M60.69,68.67a5.38,5.38,0,0,0,1,0,3.88,3.88,0,0,0,1.92-.6,3,3,0,0,0,1.23-1.79l0,0a2.56,2.56,0,0,1-2,.71,2.94,2.94,0,0,1-3-3,3.54,3.54,0,0,1,3.67-3.5c2.51,0,3.69,1.92,3.69,4.19a5.81,5.81,0,0,1-1.71,4.48,5.75,5.75,0,0,1-3.71,1.37,8.94,8.94,0,0,1-1,0Zm1.38-4.88a1.39,1.39,0,0,0,1.38,1.56,1.44,1.44,0,0,0,1.26-.65,1.1,1.1,0,0,0,.12-.57c0-1-.39-2-1.43-2C62.62,62.08,62.05,62.77,62.07,63.79Z"/><path class="cls-1" d="M77,67.73l-.72,2.59H73.93L77,60.22h3l3.14,10.1H80.69l-.78-2.59ZM79.58,66,79,63.88c-.18-.6-.36-1.35-.51-2h0c-.15.6-.3,1.37-.46,2L77.35,66Z"/><path class="cls-1" d="M86,60.36a18.57,18.57,0,0,1,3.08-.21,4.84,4.84,0,0,1,3.09.81,2.94,2.94,0,0,1,1.08,2.34,3.22,3.22,0,0,1-.93,2.39A4.65,4.65,0,0,1,89,66.76a5.67,5.67,0,0,1-.78-.05v3.61H86Zm2.26,4.58A3.24,3.24,0,0,0,89,65c1.22,0,2-.61,2-1.65s-.65-1.48-1.79-1.48a4.12,4.12,0,0,0-.94.09Z"/><path class="cls-1" d="M96.19,60.36a19.91,19.91,0,0,1,3-.21,5.11,5.11,0,0,1,3.26.79,2.58,2.58,0,0,1,.93,2.12,2.67,2.67,0,0,1-1.78,2.48v0A2.56,2.56,0,0,1,103,67.48c.31,1.13.63,2.45.82,2.84h-2.33a12,12,0,0,1-.71-2.35c-.27-1.26-.7-1.6-1.63-1.62h-.69v4H96.19Zm2.26,4.34h.9c1.14,0,1.81-.57,1.81-1.45s-.63-1.39-1.68-1.41a5.47,5.47,0,0,0-1,.08Z"/><path class="cls-1" d="M108.86,60.22v10.1h-2.29V60.22Z"/><path class="cls-1" d="M112.33,60.22h2.29V68.4h4v1.92h-6.31Z"/><path class="cls-1" d="M125.65,70.32V68.94l1.25-1.13c2.13-1.91,3.17-3,3.2-4.14,0-.79-.48-1.42-1.61-1.42a3.52,3.52,0,0,0-2.08.81l-.64-1.64a5.4,5.4,0,0,1,3.19-1c2.2,0,3.41,1.29,3.41,3s-1.18,2.94-2.59,4.2l-.9.75v0h3.67v1.87Z"/><path class="cls-1" d="M142.65,65.41c0,3-1.21,5.08-3.7,5.08s-3.63-2.27-3.64-5,1.19-5,3.71-5S142.65,62.74,142.65,65.41Zm-5.05.06c0,2.23.52,3.29,1.41,3.29s1.36-1.1,1.36-3.32-.46-3.3-1.38-3.3S137.58,63.21,137.6,65.47Z"/><path class="cls-1" d="M145.27,70.32V68.94l1.25-1.13c2.13-1.91,3.17-3,3.2-4.14,0-.79-.48-1.42-1.61-1.42a3.52,3.52,0,0,0-2.08.81l-.64-1.64a5.4,5.4,0,0,1,3.19-1c2.2,0,3.41,1.29,3.41,3s-1.18,2.94-2.59,4.2l-.9.75v0h3.67v1.87Z"/><path class="cls-1" d="M155.08,70.32V68.94l1.25-1.13c2.13-1.91,3.17-3,3.2-4.14,0-.79-.48-1.42-1.61-1.42a3.52,3.52,0,0,0-2.08.81l-.64-1.64a5.4,5.4,0,0,1,3.19-1c2.2,0,3.41,1.29,3.41,3s-1.18,2.94-2.59,4.2l-.9.75v0H162v1.87Z"/><path class="cls-3" d="M47.5,37.12c0,6.09-4.27,10.54-11.19,10.54-6.63,0-10.65-4.45-10.65-10.24,0-6.14,4.41-10.59,11-10.59C43.47,26.83,47.5,31.22,47.5,37.12Zm-15.85.15c0,3.46,1.91,6,5,6s4.89-2.57,4.89-6-1.91-6.08-4.92-6.08S31.65,33.81,31.65,37.27Z"/><path class="cls-3" d="M50.54,27.46A48.32,48.32,0,0,1,57.91,27c3,0,5.14.59,6.54,1.61a6,6,0,0,1,2.44,4.95,6.41,6.41,0,0,1-2,4.9c-1.74,1.52-4.18,2.2-7.29,2.2-.62,0-1.16-.05-1.52-.08V47.3H50.54Zm5.58,8.86a8.26,8.26,0,0,0,1.46.09c2.18,0,3.73-1,3.73-2.81,0-1.46-1.1-2.41-3.34-2.41a12.07,12.07,0,0,0-1.85.11Z"/><path class="cls-3" d="M83.52,39.33H75.34v3.43h9.13V47.3H69.7V27.19H84v4.53H75.34V34.8h8.18Z"/><path class="cls-3" d="M87.57,47.3V27.19h7.08L98,33a58.12,58.12,0,0,1,3.55,7.61h.09a64.32,64.32,0,0,1-.39-8.18V27.19h5.22V47.3h-6.17l-3.65-6.66a85.45,85.45,0,0,1-3.87-7.78h-.12c.15,3,.18,6,.18,9V47.3Z"/><path class="cls-3" d="M118.11,28a49,49,0,0,1,7.07-.44c4.24,0,6.83.62,9,2a8.5,8.5,0,0,1,4,7.61c0,4.18-1.73,6.72-3.7,8.21C132,47.23,128.31,48,124.07,48a38.39,38.39,0,0,1-6-.36Zm5.64,15.7a8.87,8.87,0,0,0,1.31.06c4.12.06,7.13-1.88,7.13-6.27,0-4-2.83-5.67-6.47-5.67a10.19,10.19,0,0,0-2,.15Z"/><path class="cls-3" d="M146.6,42.9l-1.28,4.9h-5.94l6.36-20.12h7.7l6.77,20.12h-6.27l-1.49-4.9Zm5-4.12-1.08-3.55c-.36-1.13-.77-2.59-1.13-3.76h-.06c-.33,1.17-.63,2.63-1,3.79l-1,3.52Z"/><path class="cls-3" d="M164.69,47.8V39.41l-7-11.73h6.6l1.88,4.48c.62,1.46,1,2.33,1.52,3.58h.06c.48-1.16.92-2.18,1.49-3.55l1.88-4.51h6.51L170.33,39.2v8.6Z"/><path class="cls-4" d="M46.33,36.07c0,6.09-4.27,10.53-11.19,10.53-6.63,0-10.66-4.44-10.66-10.23,0-6.15,4.42-10.6,11-10.6C42.3,25.77,46.33,30.16,46.33,36.07Zm-15.85.15c0,3.46,1.91,6,5,6s4.89-2.57,4.89-6-1.91-6.09-4.92-6.09S30.48,32.76,30.48,36.22Z"/><path class="cls-4" d="M49.37,26.4A48.32,48.32,0,0,1,56.74,26c3,0,5.13.6,6.54,1.62a6,6,0,0,1,2.44,5,6.35,6.35,0,0,1-2,4.89c-1.73,1.52-4.17,2.21-7.28,2.21-.62,0-1.16-.06-1.52-.09v6.72H49.37ZM55,35.26a8.26,8.26,0,0,0,1.46.09c2.18,0,3.73-1,3.73-2.8,0-1.46-1.1-2.42-3.34-2.42a10.49,10.49,0,0,0-1.85.12Z"/><path class="cls-4" d="M82.34,38.28H74.17v3.43H83.3v4.54H68.53V26.13H82.85v4.54H74.17v3.07h8.17Z"/><path class="cls-4" d="M86.4,46.25V26.13h7.07L96.79,32a58.74,58.74,0,0,1,3.55,7.61h.09a64.15,64.15,0,0,1-.39-8.18V26.13h5.22V46.25H99.08l-3.64-6.66c-1.28-2.33-2.71-5-3.88-7.79h-.11c.14,3.05.17,6,.17,9v5.44Z"/><path class="cls-4" d="M116.94,26.9a48.76,48.76,0,0,1,7.07-.45c4.23,0,6.83.63,9,2a8.48,8.48,0,0,1,4,7.61c0,4.18-1.73,6.71-3.7,8.21C130.87,46.18,127.14,47,122.9,47a38.39,38.39,0,0,1-6-.36Zm5.63,15.69a9.08,9.08,0,0,0,1.32.06c4.12.06,7.13-1.88,7.13-6.26,0-4-2.84-5.67-6.48-5.67a10.37,10.37,0,0,0-2,.15Z"/><path class="cls-4" d="M145.43,41.85l-1.28,4.89h-5.94l6.36-20.11h7.7L159,46.74h-6.27l-1.49-4.89Zm5-4.12-1.08-3.55c-.36-1.13-.78-2.6-1.13-3.76h-.06c-.33,1.16-.63,2.63-1,3.79l-.95,3.52Z"/><path class="cls-4" d="M163.51,46.74V38.36l-7-11.73h6.6L165,31.11c.62,1.46,1,2.32,1.52,3.58h.06c.48-1.17.92-2.18,1.49-3.55L170,26.63h6.51l-7.32,11.52v8.59Z"/><path class="cls-3" d="M75.1,27.55H75a3.38,3.38,0,0,1-.83-.53.29.29,0,0,1-.17-.19v0c.06,0,.2.2.26.2s.09,0,.12-.12l-.12,0c-.09,0,0-.16-.47-.3l0,0c0,.05,0,0,0,.08s-.06.11-.2.11-.18-.14-.3-.14-.74-.22-.74-.3.06-.09.15-.14-.2-.08-.2-.36c0-.44,0-.89,1.14-3.62.5-1.3,3.39-7.83,3.48-8.11a5,5,0,0,0-.8.78c-3.41,3.73-5.47,5.83-5.59,6.44,0,.08.06.11.2.11h.15l.06,0c.06,0,.09.09.09.14s0,.09-.06.09l-.12,0,.06.25c0,.19-.44.38-.74.38s-.58-.36-1.61-.88l-1.51-.83c-1.44-.86-1.62-1.08-1.7-2.77,0-.5-.09-.8-.15-.8-.15.17-1.65,3.57-2.12,4.79a28.89,28.89,0,0,0-1.15,3.56c0,.06,0,.17.23.25a.69.69,0,0,1,.24.25s.06.06.12.06l.26,0a1.94,1.94,0,0,0-.2.33c0,.06,0,.06.08.11a1.06,1.06,0,0,1-.7.58c-.36,0-2.74-.94-3.3-1.08a2.74,2.74,0,0,1-1.53-.8,1.18,1.18,0,0,1-.12-.61c0-1.41,1.68-6,4.51-11.7,2.09-4.48,3.91-8.49,4.56-8.49.38,0,.71.22,1.5.89a2.94,2.94,0,0,0,.47.36,5,5,0,0,1,1.24.83c.44.36.5.47.53.8a3.91,3.91,0,0,1,.21,1.08c-.06,1.19-.12,6.08-.18,6.64,0,0,0,.05,0,.05s.47-.33,1.12-1.08c2.68-3,6-6.41,7.72-7.88.32-.33.88-.78,1.14-1C82.58,2.71,81.46,3.62,84.79.8c.23-.22.35-.3.5-.3A6.89,6.89,0,0,1,87.2,1.71c0,.06.15.14.33.23a5.15,5.15,0,0,1,1.68,1.38c0,.25-.27.75-1.83,3.1a92.85,92.85,0,0,0-6.6,11.67,46,46,0,0,0-3.62,9.1v0c0,.31-.12.28-.12.36l0,.06c0,.11-.29.55-.41.55S75.27,27.55,75.1,27.55ZM76,11.12c.41-.42.74-.78.74-.8a11,11,0,0,0-1.53,1.6S75.54,11.56,76,11.12Zm-.47,11.7c-.18.25-.29.25-.29.25a.06.06,0,0,0,.06.05A1.4,1.4,0,0,0,75.48,22.82Zm.12-.36a.85.85,0,0,1-.27.22s0,0,0,0S75.48,22.63,75.6,22.46Zm.26-.83,0,0a1.23,1.23,0,0,1,.21-.36s0,0,0,0a.44.44,0,0,1,.15-.24.7.7,0,0,0,.17-.23l0-.08.14-.22c-.11.19-.23.22-.23.28v0c0,.12-.27.36-.27.47l0,.06a1,1,0,0,0-.15.36l0,0-.11.19-.21.19C75.72,21.85,75.86,21.71,75.86,21.63Zm-.08.44a.57.57,0,0,1-.27.25s0,0,0,0S75.66,22.27,75.78,22.07Zm.82-2c-.15.2-.06.11-.29.22l0,.06C76.39,20.33,76.45,20.25,76.6,20.05Zm.12-.3c0-.06,0-.11-.15-.11s-.06,0-.06,0,.09.19.12.19A.1.1,0,0,0,76.72,19.75Zm.09-.42v-.08a3,3,0,0,0,.32-.52s0,0,0,0l.18-.33,0,0c0-.06.29-.42.29-.47s0-.11.12-.22l.18-.2c-.21.22-.36.34-.44.34l0,0c0,.09-.26.39-.26.45l0,0-.18.36s0,0,0,0a1.61,1.61,0,0,0-.29.63v0Zm1.12-2.24a1.82,1.82,0,0,0-.27.25s0,0,0,0S77.72,17.23,77.93,17.09Zm0-.3-.17.14h0l0,.05S78,16.93,78,16.79Zm.27-.47c-.24.17-.12.08-.3.28l0,0C78,16.62,78,16.49,78.25,16.32Zm.23-.47c-.14.14-.23.19-.23.25l0,0S78.31,16,78.48,15.85Zm.18-.39-.29.25,0,0C78.46,15.74,78.46,15.63,78.66,15.46Zm.27-7.25c.14-.22.29-.35.29-.38a2.51,2.51,0,0,0-.41.38,1.33,1.33,0,0,0-.33.39C78.54,8.6,78.72,8.41,78.93,8.21Zm-.09,6.89c-.15.11-.3.14-.3.25l0,0C78.63,15.38,78.63,15.27,78.84,15.1ZM80.1,6.94c.27-.19.48-.36.48-.44s0,0,0,0a3.24,3.24,0,0,0-.45.47l-.41.45Zm1.18-.88.18-.2,0,0a1.26,1.26,0,0,0-.41.47A1,1,0,0,0,81.28,6.06Z"/><path class="cls-3" d="M89.41,28.21a19.53,19.53,0,0,1-3.36-1,6.79,6.79,0,0,1-1.88-1.69s0,0,0,0,.56.64.62.64l0,0a3.14,3.14,0,0,0-.83-.91l-.09,0s-.08,0-.08-.14,0,0,0,0l.08,0s0,0,0,0c-.09-.22-.11-.36-.26-.36l-.09.06,0,0,.06-.14a7.81,7.81,0,0,1-.41-2.6,13.3,13.3,0,0,1,1.35-5.59A30.79,30.79,0,0,1,89.35,8.1a15.07,15.07,0,0,1,1.39-1.66C94,2.71,97.84,0,100.25,0h.35c.71,0,.89.11,2.68,1,2.36,1.11,2.45,1.19,2.65,1.66a2.49,2.49,0,0,1,.15.86,6.87,6.87,0,0,1-.56,2.38,24.29,24.29,0,0,1-3.06,5.48c-.12.08-.21.16-.21.19l0,0a4.76,4.76,0,0,1-.79,1.19A7,7,0,0,1,100,14.52l0-.22c0-.08,0-.14-.08-.14-.21.08-.12,0-.27.14l0-.11c-.21.05-.21.11-.44.11s-1.15-.33-1.15-.58a1.37,1.37,0,0,1,.35-.86c-.35.36-.29.53-.64.53a3.41,3.41,0,0,1-1.09-.31,21.33,21.33,0,0,0,2.12-3.26,38.81,38.81,0,0,0,2.23-4.4,10.66,10.66,0,0,0,.65-2s0,0,0-.05a15,15,0,0,0-2.38,1.41A43.22,43.22,0,0,0,94.48,9.1a29,29,0,0,0-3.92,5.23c-1.59,2.57-3.18,6-3.18,8.74a4.58,4.58,0,0,0,1.38,3.43c.42.41.48.5.71.5h.21A14.92,14.92,0,0,0,95,24.34a41.56,41.56,0,0,0,4.42-4c.73.14,1,.11,1,.22s-.27.5-.68,1c.59-.6.71-.85,1-.85l.62.11.12,0,0,0-.06.19c0,.11.12.11.35.17s.27-.14.35-.14,0,0,0,0v.11c0,.08.09.11.24.11s.29-.14.41-.14.06,0,.06.11l0,.17a31.11,31.11,0,0,1-3.59,3.9c-2.48,2.24-4.83,3.34-7,3.34A14,14,0,0,1,89.41,28.21Zm9.22-5.47h0c-.06,0-.38.41-.38.41S98.45,23,98.63,22.74Zm.59-10.9,0,0a2.36,2.36,0,0,0-.47.61A1,1,0,0,0,99.22,11.84Z"/><path class="cls-3" d="M104.73,27.88l-.8-.36c-.29-.28-.5-.05-.59-.58,0-.22-.11-.33-.2-.33s-.21.19-.3.19-.14-.05-.23-.14c-.42-.33-1-.22-1-.58a30.51,30.51,0,0,1,2.42-5.72c.18-.39,1.12-2.52,2-4.79,4.68-10.81,6-12.61,6.81-14,0-.06.7-1.3,1.09-1.3.85,0,3.26,2.49,3.32,2.87a8.21,8.21,0,0,1-.62,1.39c-1.35,2.6-3.68,7.35-3.68,7.6h0c.12,0,9.07-5.09,9.07-5.28h-.06a19.28,19.28,0,0,1,3.24-1.77A17.91,17.91,0,0,0,127.52,4c.68,0,1.42,1.3,1.42,1.49s0,.11-.15.23l0,0,.09,0c.32,0,1,.94,1.23,1.6,0,.17-.47.5-.85.69-2.27,1.36-2.77,1.63-2.94,1.72l-1.74,1c-.71.33-3.65,2.1-4,2.27-2,1.1-6.62,3.73-6.8,3.92,0,.11,5.89.17,7.74.45a4.59,4.59,0,0,0,.86.11c.29,0,1,1.05,1.38,1.38.06.08.12.14.12.19s-.06.11-.15.25c.09,0,0,0,.12,0s.24.09.44.28l-.14-.05,0,0c.08.25.29,0,.7.69s.5.5.5.56c0,.27-.62.94-3,.94-1.06,0-2.56-.08-4.63-.28-3.09-.28-4.94-.36-7-.36h-1.67c-1.45,3.57-1.51,3.54-2.66,6.34a2.63,2.63,0,0,1-.76,1C105.52,28.43,105.49,28.27,104.73,27.88Z"/><path class="cls-3" d="M124.9,27.36a1.92,1.92,0,0,1-.41-.92c0-.05,0-.08.06-.08h.06s.06,0,.06-.08a.23.23,0,0,0-.24-.22c-.15,0-.2.05-.38.13l.06-.11S124.05,26,124,26a2.33,2.33,0,0,1-.53-.74c.41.47.62.66.71.66a1.08,1.08,0,0,0-.21-.44c-.27-.45-.35-.39-.47-.42.23-.66.79-.86,2.59-1.77.41-1.3.62-1.69,1.47-4,.8-1.58,3.3-6.25,4-7.36.23-.33,1-1.71,2.12-3.7,1.53-2.74,4.39-8.19,5-8.19.2,0,.56.22,2,1.8a11.87,11.87,0,0,1,.79,1.05.28.28,0,0,1,.15.25A11.54,11.54,0,0,1,140.31,6c-2.42,4.7-2.6,5-4.13,7.61-.85,1.55-3.71,7-4.06,7.85a26.93,26.93,0,0,1,4.47-.44l.86,0c2,0,4.33.42,4.92.89a23.61,23.61,0,0,1,2.5,3.65l0,0a2.09,2.09,0,0,0-.47-.17s0,0,0,0,.24.28.24.36a.06.06,0,0,1-.06,0,2.27,2.27,0,0,1-.62-.16,10,10,0,0,0-2.65-.28,37.42,37.42,0,0,0-7.25.8,18.61,18.61,0,0,0-3.65.94c0,.09.06.14.18.31s-.06,0-.18,0-.26-.11-.47-.19l.44.5c.09.05.12.08.12.11s0,.05-.09.05c-.29,0-.68-.36-1.12-.44a12,12,0,0,0-2.88,1.08.39.39,0,0,1-.3.14C125.58,28.74,125.23,27.52,124.9,27.36Z"/><path class="cls-3" d="M47.5,37.12c0,6.09-4.27,10.54-11.19,10.54-6.63,0-10.65-4.45-10.65-10.24,0-6.14,4.41-10.59,11-10.59C43.47,26.83,47.5,31.22,47.5,37.12Zm-15.85.15c0,3.46,1.91,6,5,6s4.89-2.57,4.89-6-1.91-6.08-4.92-6.08S31.65,33.81,31.65,37.27Z"/><path class="cls-3" d="M50.54,27.46A48.32,48.32,0,0,1,57.91,27c3,0,5.14.59,6.54,1.61a6,6,0,0,1,2.44,4.95,6.41,6.41,0,0,1-2,4.9c-1.74,1.52-4.18,2.2-7.29,2.2-.62,0-1.16-.05-1.52-.08V47.3H50.54Zm5.58,8.86a8.26,8.26,0,0,0,1.46.09c2.18,0,3.73-1,3.73-2.81,0-1.46-1.1-2.41-3.34-2.41a12.07,12.07,0,0,0-1.85.11Z"/><path class="cls-3" d="M83.52,39.33H75.34v3.43h9.13V47.3H69.7V27.19H84v4.53H75.34V34.8h8.18Z"/><path class="cls-3" d="M87.57,47.3V27.19h7.08L98,33a58.12,58.12,0,0,1,3.55,7.61h.09a64.32,64.32,0,0,1-.39-8.18V27.19h5.22V47.3h-6.17l-3.65-6.66a85.45,85.45,0,0,1-3.87-7.78h-.12c.15,3,.18,6,.18,9V47.3Z"/><path class="cls-3" d="M118.11,28a49,49,0,0,1,7.07-.44c4.24,0,6.83.62,9,2a8.5,8.5,0,0,1,4,7.61c0,4.18-1.73,6.72-3.7,8.21C132,47.23,128.31,48,124.07,48a38.39,38.39,0,0,1-6-.36Zm5.64,15.7a8.87,8.87,0,0,0,1.31.06c4.12.06,7.13-1.88,7.13-6.27,0-4-2.83-5.67-6.47-5.67a10.19,10.19,0,0,0-2,.15Z"/><path class="cls-3" d="M146.6,42.9l-1.28,4.9h-5.94l6.36-20.12h7.7l6.77,20.12h-6.27l-1.49-4.9Zm5-4.12-1.08-3.55c-.36-1.13-.77-2.59-1.13-3.76h-.06c-.33,1.17-.63,2.63-1,3.79l-1,3.52Z"/><path class="cls-3" d="M164.69,47.8V39.41l-7-11.73h6.6l1.88,4.48c.62,1.46,1,2.33,1.52,3.58h.06c.48-1.16.92-2.18,1.49-3.55l1.88-4.51h6.51L170.33,39.2v8.6Z"/><path class="cls-4" d="M46.33,36.07c0,6.09-4.27,10.53-11.19,10.53-6.63,0-10.66-4.44-10.66-10.23,0-6.15,4.42-10.6,11-10.6C42.3,25.77,46.33,30.16,46.33,36.07Zm-15.85.15c0,3.46,1.91,6,5,6s4.89-2.57,4.89-6-1.91-6.09-4.92-6.09S30.48,32.76,30.48,36.22Z"/><path class="cls-4" d="M49.37,26.4A48.32,48.32,0,0,1,56.74,26c3,0,5.13.6,6.54,1.62a6,6,0,0,1,2.44,5,6.35,6.35,0,0,1-2,4.89c-1.73,1.52-4.17,2.21-7.28,2.21-.62,0-1.16-.06-1.52-.09v6.72H49.37ZM55,35.26a8.26,8.26,0,0,0,1.46.09c2.18,0,3.73-1,3.73-2.8,0-1.46-1.1-2.42-3.34-2.42a10.49,10.49,0,0,0-1.85.12Z"/><path class="cls-4" d="M82.34,38.28H74.17v3.43H83.3v4.54H68.53V26.13H82.85v4.54H74.17v3.07h8.17Z"/><path class="cls-4" d="M86.4,46.25V26.13h7.07L96.79,32a58.74,58.74,0,0,1,3.55,7.61h.09a64.15,64.15,0,0,1-.39-8.18V26.13h5.22V46.25H99.08l-3.64-6.66c-1.28-2.33-2.71-5-3.88-7.79h-.11c.14,3.05.17,6,.17,9v5.44Z"/><path class="cls-4" d="M116.94,26.9a48.76,48.76,0,0,1,7.07-.45c4.23,0,6.83.63,9,2a8.48,8.48,0,0,1,4,7.61c0,4.18-1.73,6.71-3.7,8.21C130.87,46.18,127.14,47,122.9,47a38.39,38.39,0,0,1-6-.36Zm5.63,15.69a9.08,9.08,0,0,0,1.32.06c4.12.06,7.13-1.88,7.13-6.26,0-4-2.84-5.67-6.48-5.67a10.37,10.37,0,0,0-2,.15Z"/><path class="cls-4" d="M145.43,41.85l-1.28,4.89h-5.94l6.36-20.11h7.7L159,46.74h-6.27l-1.49-4.89Zm5-4.12-1.08-3.55c-.36-1.13-.78-2.6-1.13-3.76h-.06c-.33,1.16-.63,2.63-1,3.79l-.95,3.52Z"/><path class="cls-4" d="M163.51,46.74V38.36l-7-11.73h6.6L165,31.11c.62,1.46,1,2.32,1.52,3.58h.06c.48-1.17.92-2.18,1.49-3.55L170,26.63h6.51l-7.32,11.52v8.59Z"/><path class="cls-3" d="M75.1,27.55H75a3.38,3.38,0,0,1-.83-.53.29.29,0,0,1-.17-.19v0c.06,0,.2.2.26.2s.09,0,.12-.12l-.12,0c-.09,0,0-.16-.47-.3l0,0c0,.05,0,0,0,.08s-.06.11-.2.11-.18-.14-.3-.14-.74-.22-.74-.3.06-.09.15-.14-.2-.08-.2-.36c0-.44,0-.89,1.14-3.62.5-1.3,3.39-7.83,3.48-8.11a5,5,0,0,0-.8.78c-3.41,3.73-5.47,5.83-5.59,6.44,0,.08.06.11.2.11h.15l.06,0c.06,0,.09.09.09.14s0,.09-.06.09l-.12,0,.06.25c0,.19-.44.38-.74.38s-.58-.36-1.61-.88l-1.51-.83c-1.44-.86-1.62-1.08-1.7-2.77,0-.5-.09-.8-.15-.8-.15.17-1.65,3.57-2.12,4.79a28.89,28.89,0,0,0-1.15,3.56c0,.06,0,.17.23.25a.69.69,0,0,1,.24.25s.06.06.12.06l.26,0a1.94,1.94,0,0,0-.2.33c0,.06,0,.06.08.11a1.06,1.06,0,0,1-.7.58c-.36,0-2.74-.94-3.3-1.08a2.74,2.74,0,0,1-1.53-.8,1.18,1.18,0,0,1-.12-.61c0-1.41,1.68-6,4.51-11.7,2.09-4.48,3.91-8.49,4.56-8.49.38,0,.71.22,1.5.89a2.94,2.94,0,0,0,.47.36,5,5,0,0,1,1.24.83c.44.36.5.47.53.8a3.91,3.91,0,0,1,.21,1.08c-.06,1.19-.12,6.08-.18,6.64,0,0,0,.05,0,.05s.47-.33,1.12-1.08c2.68-3,6-6.41,7.72-7.88.32-.33.88-.78,1.14-1C82.58,2.71,81.46,3.62,84.79.8c.23-.22.35-.3.5-.3A6.89,6.89,0,0,1,87.2,1.71c0,.06.15.14.33.23a5.15,5.15,0,0,1,1.68,1.38c0,.25-.27.75-1.83,3.1a92.85,92.85,0,0,0-6.6,11.67,46,46,0,0,0-3.62,9.1v0c0,.31-.12.28-.12.36l0,.06c0,.11-.29.55-.41.55S75.27,27.55,75.1,27.55ZM76,11.12c.41-.42.74-.78.74-.8a11,11,0,0,0-1.53,1.6S75.54,11.56,76,11.12Zm-.47,11.7c-.18.25-.29.25-.29.25a.06.06,0,0,0,.06.05A1.4,1.4,0,0,0,75.48,22.82Zm.12-.36a.85.85,0,0,1-.27.22s0,0,0,0S75.48,22.63,75.6,22.46Zm.26-.83,0,0a1.23,1.23,0,0,1,.21-.36s0,0,0,0a.44.44,0,0,1,.15-.24.7.7,0,0,0,.17-.23l0-.08.14-.22c-.11.19-.23.22-.23.28v0c0,.12-.27.36-.27.47l0,.06a1,1,0,0,0-.15.36l0,0-.11.19-.21.19C75.72,21.85,75.86,21.71,75.86,21.63Zm-.08.44a.57.57,0,0,1-.27.25s0,0,0,0S75.66,22.27,75.78,22.07Zm.82-2c-.15.2-.06.11-.29.22l0,.06C76.39,20.33,76.45,20.25,76.6,20.05Zm.12-.3c0-.06,0-.11-.15-.11s-.06,0-.06,0,.09.19.12.19A.1.1,0,0,0,76.72,19.75Zm.09-.42v-.08a3,3,0,0,0,.32-.52s0,0,0,0l.18-.33,0,0c0-.06.29-.42.29-.47s0-.11.12-.22l.18-.2c-.21.22-.36.34-.44.34l0,0c0,.09-.26.39-.26.45l0,0-.18.36s0,0,0,0a1.61,1.61,0,0,0-.29.63v0Zm1.12-2.24a1.82,1.82,0,0,0-.27.25s0,0,0,0S77.72,17.23,77.93,17.09Zm0-.3-.17.14h0l0,.05S78,16.93,78,16.79Zm.27-.47c-.24.17-.12.08-.3.28l0,0C78,16.62,78,16.49,78.25,16.32Zm.23-.47c-.14.14-.23.19-.23.25l0,0S78.31,16,78.48,15.85Zm.18-.39-.29.25,0,0C78.46,15.74,78.46,15.63,78.66,15.46Zm.27-7.25c.14-.22.29-.35.29-.38a2.51,2.51,0,0,0-.41.38,1.33,1.33,0,0,0-.33.39C78.54,8.6,78.72,8.41,78.93,8.21Zm-.09,6.89c-.15.11-.3.14-.3.25l0,0C78.63,15.38,78.63,15.27,78.84,15.1ZM80.1,6.94c.27-.19.48-.36.48-.44s0,0,0,0a3.24,3.24,0,0,0-.45.47l-.41.45Zm1.18-.88.18-.2,0,0a1.26,1.26,0,0,0-.41.47A1,1,0,0,0,81.28,6.06Z"/><path class="cls-3" d="M89.41,28.21a19.53,19.53,0,0,1-3.36-1,6.79,6.79,0,0,1-1.88-1.69s0,0,0,0,.56.64.62.64l0,0a3.14,3.14,0,0,0-.83-.91l-.09,0s-.08,0-.08-.14,0,0,0,0l.08,0s0,0,0,0c-.09-.22-.11-.36-.26-.36l-.09.06,0,0,.06-.14a7.81,7.81,0,0,1-.41-2.6,13.3,13.3,0,0,1,1.35-5.59A30.79,30.79,0,0,1,89.35,8.1a15.07,15.07,0,0,1,1.39-1.66C94,2.71,97.84,0,100.25,0h.35c.71,0,.89.11,2.68,1,2.36,1.11,2.45,1.19,2.65,1.66a2.49,2.49,0,0,1,.15.86,6.87,6.87,0,0,1-.56,2.38,24.29,24.29,0,0,1-3.06,5.48c-.12.08-.21.16-.21.19l0,0a4.76,4.76,0,0,1-.79,1.19A7,7,0,0,1,100,14.52l0-.22c0-.08,0-.14-.08-.14-.21.08-.12,0-.27.14l0-.11c-.21.05-.21.11-.44.11s-1.15-.33-1.15-.58a1.37,1.37,0,0,1,.35-.86c-.35.36-.29.53-.64.53a3.41,3.41,0,0,1-1.09-.31,21.33,21.33,0,0,0,2.12-3.26,38.81,38.81,0,0,0,2.23-4.4,10.66,10.66,0,0,0,.65-2s0,0,0-.05a15,15,0,0,0-2.38,1.41A43.22,43.22,0,0,0,94.48,9.1a29,29,0,0,0-3.92,5.23c-1.59,2.57-3.18,6-3.18,8.74a4.58,4.58,0,0,0,1.38,3.43c.42.41.48.5.71.5h.21A14.92,14.92,0,0,0,95,24.34a41.56,41.56,0,0,0,4.42-4c.73.14,1,.11,1,.22s-.27.5-.68,1c.59-.6.71-.85,1-.85l.62.11.12,0,0,0-.06.19c0,.11.12.11.35.17s.27-.14.35-.14,0,0,0,0v.11c0,.08.09.11.24.11s.29-.14.41-.14.06,0,.06.11l0,.17a31.11,31.11,0,0,1-3.59,3.9c-2.48,2.24-4.83,3.34-7,3.34A14,14,0,0,1,89.41,28.21Zm9.22-5.47h0c-.06,0-.38.41-.38.41S98.45,23,98.63,22.74Zm.59-10.9,0,0a2.36,2.36,0,0,0-.47.61A1,1,0,0,0,99.22,11.84Z"/><path class="cls-3" d="M104.73,27.88l-.8-.36c-.29-.28-.5-.05-.59-.58,0-.22-.11-.33-.2-.33s-.21.19-.3.19-.14-.05-.23-.14c-.42-.33-1-.22-1-.58a30.51,30.51,0,0,1,2.42-5.72c.18-.39,1.12-2.52,2-4.79,4.68-10.81,6-12.61,6.81-14,0-.06.7-1.3,1.09-1.3.85,0,3.26,2.49,3.32,2.87a8.21,8.21,0,0,1-.62,1.39c-1.35,2.6-3.68,7.35-3.68,7.6h0c.12,0,9.07-5.09,9.07-5.28h-.06a19.28,19.28,0,0,1,3.24-1.77A17.91,17.91,0,0,0,127.52,4c.68,0,1.42,1.3,1.42,1.49s0,.11-.15.23l0,0,.09,0c.32,0,1,.94,1.23,1.6,0,.17-.47.5-.85.69-2.27,1.36-2.77,1.63-2.94,1.72l-1.74,1c-.71.33-3.65,2.1-4,2.27-2,1.1-6.62,3.73-6.8,3.92,0,.11,5.89.17,7.74.45a4.59,4.59,0,0,0,.86.11c.29,0,1,1.05,1.38,1.38.06.08.12.14.12.19s-.06.11-.15.25c.09,0,0,0,.12,0s.24.09.44.28l-.14-.05,0,0c.08.25.29,0,.7.69s.5.5.5.56c0,.27-.62.94-3,.94-1.06,0-2.56-.08-4.63-.28-3.09-.28-4.94-.36-7-.36h-1.67c-1.45,3.57-1.51,3.54-2.66,6.34a2.63,2.63,0,0,1-.76,1C105.52,28.43,105.49,28.27,104.73,27.88Z"/><path class="cls-3" d="M124.9,27.36a1.92,1.92,0,0,1-.41-.92c0-.05,0-.08.06-.08h.06s.06,0,.06-.08a.23.23,0,0,0-.24-.22c-.15,0-.2.05-.38.13l.06-.11S124.05,26,124,26a2.33,2.33,0,0,1-.53-.74c.41.47.62.66.71.66a1.08,1.08,0,0,0-.21-.44c-.27-.45-.35-.39-.47-.42.23-.66.79-.86,2.59-1.77.41-1.3.62-1.69,1.47-4,.8-1.58,3.3-6.25,4-7.36.23-.33,1-1.71,2.12-3.7,1.53-2.74,4.39-8.19,5-8.19.2,0,.56.22,2,1.8a11.87,11.87,0,0,1,.79,1.05.28.28,0,0,1,.15.25A11.54,11.54,0,0,1,140.31,6c-2.42,4.7-2.6,5-4.13,7.61-.85,1.55-3.71,7-4.06,7.85a26.93,26.93,0,0,1,4.47-.44l.86,0c2,0,4.33.42,4.92.89a23.61,23.61,0,0,1,2.5,3.65l0,0a2.09,2.09,0,0,0-.47-.17s0,0,0,0,.24.28.24.36a.06.06,0,0,1-.06,0,2.27,2.27,0,0,1-.62-.16,10,10,0,0,0-2.65-.28,37.42,37.42,0,0,0-7.25.8,18.61,18.61,0,0,0-3.65.94c0,.09.06.14.18.31s-.06,0-.18,0-.26-.11-.47-.19l.44.5c.09.05.12.08.12.11s0,.05-.09.05c-.29,0-.68-.36-1.12-.44a12,12,0,0,0-2.88,1.08.39.39,0,0,1-.3.14C125.58,28.74,125.23,27.52,124.9,27.36Z"/></g></g></svg>