<svg id="visual" viewBox="0 0 900 320" width="900" height="320" xmlns="http://www.w3.org/2000/svg" xmlns:xlink="http://www.w3.org/1999/xlink" version="1.1"><path d="M0 30L50 31.5C100 33 200 36 300 37C400 38 500 37 600 36C700 35 800 34 850 33.5L900 33L900 0L850 0C800 0 700 0 600 0C500 0 400 0 300 0C200 0 100 0 50 0L0 0Z" fill="#ffffff"></path><path d="M0 55L50 57.2C100 59.3 200 63.7 300 65.8C400 68 500 68 600 67C700 66 800 64 850 63L900 62L900 31L850 31.5C800 32 700 33 600 34C500 35 400 36 300 35C200 34 100 31 50 29.5L0 28Z" fill="#ffd695"></path><path d="M0 135L50 137.7C100 140.3 200 145.7 300 150C400 154.3 500 157.7 600 157.2C700 156.7 800 152.3 850 150.2L900 148L900 60L850 61C800 62 700 64 600 65C500 66 400 66 300 63.8C200 61.7 100 57.3 50 55.2L0 53Z" fill="#fcaf17"></path><path d="M0 225L50 225.5C100 226 200 227 300 230.2C400 233.3 500 238.7 600 239.2C700 239.7 800 235.3 850 233.2L900 231L900 146L850 148.2C800 150.3 700 154.7 600 155.2C500 155.7 400 152.3 300 148C200 143.7 100 138.3 50 135.7L0 133Z" fill="#fcaf17"></path><path d="M0 276L50 276.5C100 277 200 278 300 279.7C400 281.3 500 283.7 600 284.3C700 285 800 284 850 283.5L900 283L900 229L850 231.2C800 233.3 700 237.7 600 237.2C500 236.7 400 231.3 300 228.2C200 225 100 224 50 223.5L0 223Z" fill="#ffd695"></path><path d="M0 321L50 321C100 321 200 321 300 321C400 321 500 321 600 321C700 321 800 321 850 321L900 321L900 281L850 281.5C800 282 700 283 600 282.3C500 281.7 400 279.3 300 277.7C200 276 100 275 50 274.5L0 274Z" fill="#ffffff"></path></svg>