<svg xmlns="http://www.w3.org/2000/svg" viewBox="0 0 285.13 84.28"><defs><style>.cls-1{fill:#fff;}</style></defs><g id="Layer_2" data-name="Layer 2"><g id="Layer_1-2" data-name="Layer 1"><path class="cls-1" d="M120.6,9.68c-.88,1.47-.77,3.56-.77,5.49a133.29,133.29,0,0,0,.31,14.13,13.41,13.41,0,0,0,1.2,5.06h-5.69c.7-1.93.7-4.79.7-7V14.56c0-.39,0-.86-.27-.86s-.39.28-.5.59l-8.67,20.46-7.35-19c-.43-1.12-.7-2.05-1-2.05s-.34.7-.34,1.28l0,12.58c0,3,0,5.53.86,6.8H94.37l.35-.5c1.43-2.05,1.59-8.16,1.59-12.34V11.85c0-1,0-1.59-1-2.17h4.8c.46,0,1,.08,1.2.58l5.72,16.87c.2.58.31,1.24.62,1.24s.47-.39.7-.93l6.69-16.13c.35-.82.62-1.63,1.59-1.63Z"/><path class="cls-1" d="M128.68,32.82h4.44a9.92,9.92,0,0,0,6.7-2.21l-.7,3.56c-1,.08-2.32.2-3.71.2H124.23c.85-1.32,1-3.33,1-5.07V14.75c0-1.74,0-3.75-.86-5.07h13.51l.15,3c-1.35-1.16-3.44-1.43-5.72-1.43h-3.6v9.25c3,0,6.11,0,9.09-.28-1.36,2.21-5.73,2.21-8.13,2.21h-1Z"/><path class="cls-1" d="M147.7,34.36c.86-1.31.86-3.32.86-5.06V11.62h-5.15a4.15,4.15,0,0,0-2.75.85l.78-2.79H160.9c-.66,1.67-3,1.94-4.61,1.94H152V29.3c0,1.74,0,3.75.85,5.06Z"/><path class="cls-1" d="M179,14.75a10.31,10.31,0,0,0-.89-5.07h5.26a10.31,10.31,0,0,0-.89,5.07V29.3a10.31,10.31,0,0,0,.89,5.07h-5.26A10.31,10.31,0,0,0,179,29.3V21.83H167.57V29.3a10.2,10.2,0,0,0,.89,5.07h-5.27a10.2,10.2,0,0,0,.89-5.07V14.75a10.2,10.2,0,0,0-.89-5.07h5.27a10.2,10.2,0,0,0-.89,5.07v5.53H179Z"/><path class="cls-1" d="M198,35c-8.12,0-11.68-5.57-11.68-12.45,0-7.36,4.26-13.47,12.3-13.47s11.69,5.57,11.69,12.46C210.27,28.87,206,35,198,35m.31-24.22c-5.57,0-8,5.11-8,10.68,0,5.11,1.74,11.84,8,11.84,5.57,0,8-5.11,8-10.68,0-5.1-1.74-11.84-8-11.84"/><path class="cls-1" d="M213.63,14.75c0-1.74,0-3.75-.86-5.07,3.91,0,7.82-.39,11.77-.39,6.46,0,10.87,4.88,10.87,11.8,0,8.63-6,13.43-13.31,13.43-3.91,0-6.62-.16-9.33-.16.86-1.31.86-3.32.86-5.06ZM217.11,30c0,2.79.77,2.94,4.95,2.94,6.89,0,9.32-4.87,9.32-11.22,0-6.69-3.63-10.91-10.56-10.91a22.54,22.54,0,0,0-3.67.31c0,.58,0,1.2,0,1.82Z"/><path class="cls-1" d="M239.87,14.75c0-1.74,0-3.75-.85-5.07h5.18c-.85,1.32-.85,3.33-.85,5.07V29.3c0,1.74,0,3.75.85,5.07H239c.85-1.32.85-3.33.85-5.07Z"/><path class="cls-1" d="M247,29.53c1.16,1.62,2.82,3.91,6.89,3.91,2.93,0,5.14-1.74,5.14-4.84C259,22.1,248,22.91,248,15.76c0-4.49,3.67-6.7,7.77-6.7,2,0,4,.23,6,.23v3.6a6.07,6.07,0,0,0-5.38-2.28c-2.71,0-4.72,1.35-4.72,4.26,0,6,11.07,5.22,11.07,12.61,0,4.8-4.69,7.5-9,7.5A20.68,20.68,0,0,1,247,33.63Z"/><path class="cls-1" d="M271.42,34.36c.85-1.31.85-3.32.85-5.06V11.62h-5.14a4.15,4.15,0,0,0-2.75.85l.77-2.79h19.46c-.65,1.67-3,1.94-4.6,1.94h-4.26V29.3c0,1.74,0,3.75.86,5.06Z"/><path class="cls-1" d="M102.34,44.34h0a2.76,2.76,0,0,0-2.8-1.57c-2.73,0-3.81,2.25-3.81,4.72,0,2.73,1.39,4.85,4.25,4.85a4,4,0,0,0,3-1.2v.1c0,.79-1.26,2.42-4,2.42-3.17,0-5.12-2.5-5.1-5.69,0-3.56,2.11-6,5.64-6,1,0,1.74.14,2.9.14Z"/><path class="cls-1" d="M109.24,53.66c-3.66,0-5.26-2.5-5.26-5.6,0-3.3,1.92-6.06,5.54-6.06s5.25,2.51,5.25,5.61c0,3.3-1.91,6-5.53,6m.14-10.89c-2.51,0-3.59,2.3-3.59,4.8,0,2.3.79,5.33,3.59,5.33,2.5,0,3.58-2.3,3.58-4.8,0-2.3-.78-5.33-3.58-5.33"/><path class="cls-1" d="M116.84,44.56a4.47,4.47,0,0,0-.38-2.28h2.33a4.47,4.47,0,0,0-.38,2.28v8.13h1.32a3.51,3.51,0,0,0,2.73-1l-.33,1.63a9.4,9.4,0,0,1-1.06.05h-4.82c.52-.67.59-3.13.59-4Z"/><path class="cls-1" d="M124.27,44.56a4.47,4.47,0,0,0-.38-2.28h2.33a4.47,4.47,0,0,0-.38,2.28v8.13h1.32a3.52,3.52,0,0,0,2.73-1l-.33,1.63a9.4,9.4,0,0,1-1.06.05h-4.82c.52-.67.59-3.13.59-4Z"/><path class="cls-1" d="M133.08,52.69h2a4.47,4.47,0,0,0,3-1l-.31,1.6c-.47,0-1,.08-1.67.08h-5a4.44,4.44,0,0,0,.43-2.28V44.56a4.47,4.47,0,0,0-.38-2.28h6.08l.06,1.34A4,4,0,0,0,134.7,43h-1.62v4.16c1.34,0,2.75,0,4.09-.12-.61,1-2.58,1-3.65,1h-.44Z"/><path class="cls-1" d="M148.57,44.08a5.07,5.07,0,0,0-3.51-1.31c-2.7,0-4.26,2.28-4.26,4.82,0,3.22,1.53,5.31,4.88,5.31a9,9,0,0,0,1.29-.12,6.12,6.12,0,0,0,.18-1.8v-.85a4.35,4.35,0,0,0-.39-2.28h2.33a4.46,4.46,0,0,0-.38,2.28v1.74a10.73,10.73,0,0,0,.12,1.51,24,24,0,0,1-3.7.28c-3.67,0-6.14-1.62-6.14-5.53,0-4.21,3.06-6.12,7-6.12.86,0,1.74.12,2.62.19Z"/><path class="cls-1" d="M152.8,52.69h2a4.47,4.47,0,0,0,3-1l-.31,1.6c-.47,0-1.05.08-1.67.08h-5a4.44,4.44,0,0,0,.43-2.28V44.56a4.47,4.47,0,0,0-.38-2.28h6.07l.07,1.34a4,4,0,0,0-2.57-.64H152.8v4.16c1.34,0,2.75,0,4.09-.12-.61,1-2.58,1-3.66,1h-.43Z"/><path class="cls-1" d="M168.9,44.56a4.47,4.47,0,0,0-.38-2.28h2.33a4.47,4.47,0,0,0-.38,2.28v2.72c.81-.16,1.86-1.41,2.73-2.44s1.54-1.81,1.54-2.22a3.13,3.13,0,0,0,0-.34h2.16a27.16,27.16,0,0,0-2.25,2.07l-2.7,2.93,2.89,4.12a22.21,22.21,0,0,0,1.59,2h-1.83c-.32,0-.47-.19-.66-.46l-3.13-4.74c-.07-.12-.19-.28-.26-.28s-.07.09-.07.16v3a4.42,4.42,0,0,0,.38,2.27h-2.33a4.42,4.42,0,0,0,.38-2.27Z"/><path class="cls-1" d="M187.38,42.28a4.57,4.57,0,0,0-.38,2.3v6.54a4.34,4.34,0,0,0,.38,2.26l-2.07.11.07-1.15c0-.05,0-.07-.09-.07s-.1.11-.2.19a5,5,0,0,1-3.36,1.2c-2,0-3.36-.82-3.41-3V44.58a4.57,4.57,0,0,0-.38-2.3h2.33a4.47,4.47,0,0,0-.39,2.3v5.08c.06,1.86.82,3,2.79,3s2.64-1.27,2.7-3.34c0-.66.07-1.34.07-2V44.58a4.47,4.47,0,0,0-.39-2.3Z"/><path class="cls-1" d="M197.76,53.38l-1.89-4.87H192a12.59,12.59,0,0,0-1.53,4.21,4.77,4.77,0,0,0,.05.66H188.3l.38-.48c1-1.26,4.58-8.72,4.58-10.15v-.47h2.06a62.85,62.85,0,0,0,4,10.46l.35.64Zm-3.41-9.29c0-.12-.13-.41-.29-.41s-.26.33-.3.41l-1.51,3.73h3.32Z"/><path class="cls-1" d="M201.41,44.56a4.47,4.47,0,0,0-.38-2.28h2.33a4.47,4.47,0,0,0-.38,2.28v8.13h1.32a3.52,3.52,0,0,0,2.73-1l-.33,1.63a9.4,9.4,0,0,1-1.06.05h-4.82c.52-.67.59-3.13.59-4Z"/><path class="cls-1" d="M216.92,53.38,215,48.51h-3.92a12.59,12.59,0,0,0-1.53,4.21,4.77,4.77,0,0,0,0,.66h-2.17l.38-.48c1-1.26,4.58-8.72,4.58-10.15v-.47h2.06a62,62,0,0,0,4,10.46l.35.64Zm-3.41-9.29c0-.12-.14-.41-.29-.41s-.26.33-.3.41l-1.51,3.73h3.32Z"/><path class="cls-1" d="M224.92,44.56a4.37,4.37,0,0,0-.39-2.28h2.33a4.47,4.47,0,0,0-.38,2.28v8.13h1.33a3.53,3.53,0,0,0,2.73-1l-.33,1.63a9.58,9.58,0,0,1-1.07.05h-4.82c.53-.67.6-3.13.6-4Z"/><path class="cls-1" d="M241.08,42.28a4.57,4.57,0,0,0-.38,2.3v6.54a4.34,4.34,0,0,0,.38,2.26l-2.07.11.07-1.15c0-.05,0-.07-.09-.07s-.1.11-.21.19a5,5,0,0,1-3.35,1.2c-2,0-3.36-.82-3.41-3V44.58a4.47,4.47,0,0,0-.39-2.3H234a4.57,4.57,0,0,0-.38,2.3v5.08c0,1.86.82,3,2.78,3s2.65-1.27,2.7-3.34c0-.66.07-1.34.07-2V44.58a4.57,4.57,0,0,0-.38-2.3Z"/><path class="cls-1" d="M254.43,42.28a5,5,0,0,0-.35,2.48,61,61,0,0,0,.14,6.34,6.05,6.05,0,0,0,.54,2.28h-2.55a10.38,10.38,0,0,0,.31-3.13V44.48c0-.18,0-.39-.12-.39s-.18.12-.23.26l-3.9,9.21L245,45c-.19-.51-.31-.93-.47-.93s-.16.32-.16.58l0,5.65a6.41,6.41,0,0,0,.39,3.06h-2.07l.15-.22c.65-.92.72-3.67.72-5.55V43.26c0-.47,0-.72-.44-1h2.16c.21,0,.47,0,.54.26l2.57,7.59c.09.26.14.56.28.56s.21-.18.31-.42l3-7.25c.16-.37.28-.74.72-.74Z"/><path class="cls-1" d="M256.73,44.56a4.37,4.37,0,0,0-.39-2.28c1.4,0,2.73-.17,4.09-.17,2.21,0,3.24,1.22,3.24,2.92a3.21,3.21,0,0,1-3.31,3.48,2.25,2.25,0,0,1-1.51-.38c1.34-.17,3-.4,3-2.92,0-1.36-.4-2.41-2.18-2.41h-1.39v8.31a4.54,4.54,0,0,0,.45,2.27h-2.4a4.3,4.3,0,0,0,.39-2.27Z"/><path class="cls-1" d="M274.39,42.28a4.47,4.47,0,0,0-.39,2.3v6.54a4.24,4.24,0,0,0,.39,2.26l-2.07.11.07-1.15c0-.05,0-.07-.09-.07s-.1.11-.21.19a5,5,0,0,1-3.35,1.2c-2,0-3.36-.82-3.42-3V44.58a4.57,4.57,0,0,0-.38-2.3h2.33a4.57,4.57,0,0,0-.38,2.3v5.08c.05,1.86.82,3,2.78,3s2.65-1.27,2.7-3.34c0-.66.07-1.34.07-2V44.58a4.57,4.57,0,0,0-.38-2.3Z"/><path class="cls-1" d="M283.67,51.77a9.29,9.29,0,0,0,1.46,1.61H283.7a1.65,1.65,0,0,1-1.46-1l-2.12-3c-.73-1-.85-1.34-1.86-1.43v3.14a4.42,4.42,0,0,0,.38,2.27h-2.42a4.08,4.08,0,0,0,.47-2.38V44.56a4.47,4.47,0,0,0-.38-2.28c1.46,0,2.85-.17,4.21-.17,1.77,0,2.69,1,2.69,2.33a3.62,3.62,0,0,1-2.57,3.15Zm-5.41-4.48a5.12,5.12,0,0,0,.78.06,2.33,2.33,0,0,0,2.61-2.56c0-1.74-1-1.95-2.54-2h-.82c0,.27,0,.56,0,.84Z"/><path class="cls-1" d="M96.61,75.49c.13-.1.57-.56,1.34-1.39s1.47-1.65,2.11-2.44a12.12,12.12,0,0,0,1.17-1.59,1.45,1.45,0,0,0,.2-.71c0-.44-.27-.68-.82-.71-.18,0-.28-.05-.28-.13s.09-.16.24-.16l.64,0,1.1,0c.94,0,1.49,0,1.66,0s.25.06.25.13-.13.13-.37.17a2.77,2.77,0,0,0-1.19.52,43.71,43.71,0,0,0-3.11,3.54c-.65.77-1.61,1.84-2.9,3.2-.64.67-1.08,1.15-1.31,1.44s-.41.45-.52.45a.09.09,0,0,1-.1-.1,1,1,0,0,1,0-.27,65.86,65.86,0,0,0,1.76-7.8.81.81,0,0,0-.29-.64,1.15,1.15,0,0,0-.83-.27c-.11,0-.16,0-.16-.12s.1-.15.31-.15l1.59,0c.46,0,1,0,1.52-.07.29,0,.52-.05.69-.05s.15,0,.15.12-.07.14-.19.15a1.77,1.77,0,0,0-.86.22,1.52,1.52,0,0,0-.43.7,21.91,21.91,0,0,0-.61,2.24c-.27,1.13-.54,2.35-.81,3.68"/><path class="cls-1" d="M106.87,75.07a7.42,7.42,0,0,0-.23,1.49.88.88,0,0,0,.18.54.53.53,0,0,0,.47.25,1.58,1.58,0,0,0,.9-.35,3.12,3.12,0,0,0,.8-.86q.17-.24.3-.24c.09,0,.14,0,.14.12,0,.24-.27.58-.79,1a2.47,2.47,0,0,1-1.63.67,1.23,1.23,0,0,1-1-.48,1.75,1.75,0,0,1-.37-1.11,5.2,5.2,0,0,1,1.23-3q1.23-1.65,2.4-1.65a1,1,0,0,1,1,.93,2.06,2.06,0,0,1-.77,1.43,6.41,6.41,0,0,1-2.56,1.23m.11-.31a5.82,5.82,0,0,0,1.79-1.21,2.05,2.05,0,0,0,.72-1.36.4.4,0,0,0-.11-.26.32.32,0,0,0-.27-.14,1.62,1.62,0,0,0-1.06.63A5.55,5.55,0,0,0,107,74.76"/><path class="cls-1" d="M117.27,73.51A7.45,7.45,0,0,1,118.4,72a1.55,1.55,0,0,1,1-.5.75.75,0,0,1,.52.19.58.58,0,0,1,.21.49.74.74,0,0,1-.16.47.51.51,0,0,1-.43.22.53.53,0,0,1-.57-.4c0-.18-.11-.27-.19-.27s-.39.23-.74.7a12.06,12.06,0,0,0-1,1.75l-1,3.07h-.87q0-.16.42-1.32c.68-2.58,1-4,1-4.25,0-.09,0-.14-.1-.14s-.26.13-.51.37a4.73,4.73,0,0,0-.66.77c-.14.21-.26.32-.34.32a.11.11,0,0,1-.12-.12,3.49,3.49,0,0,1,.74-1c.49-.57.92-.85,1.29-.85a.55.55,0,0,1,.58.54,4.16,4.16,0,0,1-.08.71c0,.11-.05.36-.1.76"/><path class="cls-1" d="M125.59,77.14a.3.3,0,0,0,0,.18.2.2,0,0,0,.15.06,1.23,1.23,0,0,0,.61-.25,4.25,4.25,0,0,0,.75-.62.41.41,0,0,1,.25-.16c.08,0,.13,0,.13.11s-.24.42-.72.77a2.35,2.35,0,0,1-1.33.51.9.9,0,0,1-.59-.16.45.45,0,0,1-.2-.37,11.63,11.63,0,0,1,.78-2.24,15.7,15.7,0,0,0,1-2.74.3.3,0,0,0,0-.18.18.18,0,0,0-.15-.06c-.2,0-.53.21-1,.65-.17.17-.3.25-.37.25s-.09,0-.09-.11.24-.37.74-.76a2.37,2.37,0,0,1,1.33-.57.52.52,0,0,1,.41.19.54.54,0,0,1,.18.38,1.82,1.82,0,0,1-.09.51c-.06.16-.42,1-1.06,2.55a21.55,21.55,0,0,0-.76,2.06m2.29-9.1a.56.56,0,0,1,.39,1,.5.5,0,0,1-.39.16.53.53,0,0,1-.39-.16.58.58,0,0,1,0-.8.57.57,0,0,1,.39-.16"/><path class="cls-1" d="M135,71.94c0,.14-.17.52-.38,1.13a17.54,17.54,0,0,0-1,3.62c0,.29.11.43.32.43s.87-.4,1.56-1.2c.09-.11.17-.16.24-.16s.13,0,.13.1-.3.46-.88,1a2.64,2.64,0,0,1-1.82.84.6.6,0,0,1-.49-.19.56.56,0,0,1-.16-.39,4.07,4.07,0,0,1,.3-1.31s.45-1.32,1.3-3.84l-.67,0L133,72a.09.09,0,0,1-.1-.1c0-.13,0-.21,0-.23a1,1,0,0,1,.38-.06c.23,0,.54,0,.94,0,.12-.4.26-.84.44-1.34l.27-.81a.1.1,0,0,1,.09-.06,2.15,2.15,0,0,1,.5.07q.24.06.24.15l0,0-.64,2,.87,0a2.37,2.37,0,0,1,.45,0,.06.06,0,0,1,0,0c0,.21,0,.32-.11.32l-.53,0Z"/><path class="cls-1" d="M146.36,71.62c-.14.3-.4,1.08-.81,2.36l-.62,2a2.84,2.84,0,0,0-.2.92.21.21,0,0,0,.24.24,1,1,0,0,0,.48-.23,3.65,3.65,0,0,0,.61-.58c.13-.16.22-.24.28-.24a.11.11,0,0,1,.12.12c0,.13-.26.41-.78.85a2.23,2.23,0,0,1-1.37.66c-.28,0-.41-.19-.41-.56s0-.59,0-1a3,3,0,0,1-2.29,1.48.84.84,0,0,1-.77-.38,1.47,1.47,0,0,1-.25-.85A5.48,5.48,0,0,1,142,73.25c.91-1.18,1.77-1.77,2.57-1.77a.64.64,0,0,1,.51.21,1.21,1.21,0,0,1,.24.67,7.62,7.62,0,0,1,.41-.85l.43.07a.74.74,0,0,0,.2,0m-2.18.25a1.6,1.6,0,0,0-1,.59,5.14,5.14,0,0,0-1.06,1.74,5.58,5.58,0,0,0-.46,1.92,1.21,1.21,0,0,0,.17.69.55.55,0,0,0,.48.23c.55,0,1.1-.51,1.66-1.51a5.69,5.69,0,0,0,.84-2.73,1.22,1.22,0,0,0-.17-.67.54.54,0,0,0-.45-.26"/><path class="cls-1" d="M154.72,75.69a2,2,0,0,1-.6,1.45,2,2,0,0,1-1.42.61,1.5,1.5,0,0,1-1.09-.38,1,1,0,0,1-.4-.7.63.63,0,0,1,.16-.41.51.51,0,0,1,.92.28.73.73,0,0,1-.06.26.63.63,0,0,0-.07.25.31.31,0,0,0,.16.28,1,1,0,0,0,.48.09,1.13,1.13,0,0,0,.83-.3,1,1,0,0,0,.29-.73,2.28,2.28,0,0,0-.56-1.18,3.68,3.68,0,0,1-.9-2A1.85,1.85,0,0,1,153,72a1.59,1.59,0,0,1,1.24-.56,1.51,1.51,0,0,1,.91.28.82.82,0,0,1,.39.64.59.59,0,0,1-.15.4.46.46,0,0,1-.36.16.37.37,0,0,1-.4-.42v-.38a.33.33,0,0,0-.18-.27.82.82,0,0,0-.4-.1.9.9,0,0,0-.59.22.75.75,0,0,0-.28.64,3.12,3.12,0,0,0,.8,1.44,2.91,2.91,0,0,1,.77,1.62"/><path class="cls-1" d="M169.74,75.49c.13-.1.58-.56,1.34-1.39s1.47-1.65,2.11-2.44a13.75,13.75,0,0,0,1.18-1.59,1.57,1.57,0,0,0,.2-.71c0-.44-.28-.68-.83-.71-.18,0-.27-.05-.27-.13s.08-.16.24-.16l.63,0,1.1,0c.94,0,1.49,0,1.66,0s.25.06.25.13-.12.13-.37.17a2.77,2.77,0,0,0-1.19.52,46,46,0,0,0-3.11,3.54q-1,1.15-2.9,3.2c-.64.67-1.08,1.15-1.31,1.44s-.41.45-.51.45a.09.09,0,0,1-.1-.1.71.71,0,0,1,0-.27,68.29,68.29,0,0,0,1.76-7.8.84.84,0,0,0-.29-.64,1.17,1.17,0,0,0-.83-.27c-.11,0-.17,0-.17-.12s.1-.15.31-.15l1.59,0c.46,0,1,0,1.53-.07.29,0,.51-.05.68-.05s.15,0,.15.12-.06.14-.19.15a1.73,1.73,0,0,0-.85.22,1.45,1.45,0,0,0-.44.7c-.13.36-.34,1.11-.61,2.24s-.54,2.35-.81,3.68"/><path class="cls-1" d="M180.93,77.14a.3.3,0,0,0,0,.18.21.21,0,0,0,.16.06,1.27,1.27,0,0,0,.61-.25,3.87,3.87,0,0,0,.74-.62c.11-.11.19-.16.25-.16s.13,0,.13.11-.24.42-.72.77a2.32,2.32,0,0,1-1.32.51,1,1,0,0,1-.6-.16.48.48,0,0,1-.2-.37,11.27,11.27,0,0,1,.79-2.24,15.7,15.7,0,0,0,1-2.74.3.3,0,0,0,0-.18.17.17,0,0,0-.14-.06c-.21,0-.53.21-1,.65-.18.17-.3.25-.37.25s-.1,0-.1-.11.25-.37.74-.76a2.37,2.37,0,0,1,1.33-.57.55.55,0,0,1,.42.19.57.57,0,0,1,.17.38,1.52,1.52,0,0,1-.09.51c-.06.16-.41,1-1.06,2.55a21.55,21.55,0,0,0-.76,2.06m2.3-9.1a.54.54,0,0,1,.39.17.53.53,0,0,1,.16.39.54.54,0,0,1-.16.4.53.53,0,0,1-.39.16.55.55,0,0,1-.56-.56.51.51,0,0,1,.17-.4.57.57,0,0,1,.39-.16"/><path class="cls-1" d="M190.1,74a8.68,8.68,0,0,1,1.41-1.88,1.87,1.87,0,0,1,1.23-.63.62.62,0,0,1,.51.23.92.92,0,0,1,.18.57,3,3,0,0,1-.12.83c-.08.29-.27.87-.58,1.74a10.91,10.91,0,0,0-.63,2.06c0,.16.06.23.2.23a1.14,1.14,0,0,0,.57-.31,2.45,2.45,0,0,0,.57-.62c.13-.21.23-.32.31-.32s.12,0,.12.14-.24.53-.73,1a2.06,2.06,0,0,1-1.39.7c-.44,0-.65-.18-.65-.54a14.88,14.88,0,0,1,1-3.29,4.9,4.9,0,0,0,.4-1.58.38.38,0,0,0-.06-.24.21.21,0,0,0-.19-.09c-.14,0-.4.19-.79.55a7.76,7.76,0,0,0-1.34,1.92A28.08,28.08,0,0,0,189,77q-.3.72-.39.72c-.46,0-.69-.06-.69-.19l0-.07,1.2-3.46a6.43,6.43,0,0,0,.47-1.76c0-.15-.07-.22-.2-.22s-.31.12-.58.35a5.37,5.37,0,0,0-.63.67q-.18.24-.3.24a.1.1,0,0,1-.11-.11c0-.16.26-.48.78-1a2.2,2.2,0,0,1,1.47-.74.4.4,0,0,1,.35.17.54.54,0,0,1,.12.34,18.43,18.43,0,0,1-.36,2"/><path class="cls-1" d="M202.47,71.52a1,1,0,0,1,.66.26.8.8,0,0,1,.28.62.57.57,0,0,1-.14.4.47.47,0,0,1-.32.14.38.38,0,0,1-.3-.12,1.75,1.75,0,0,1-.19-.44.71.71,0,0,0-.17-.4.35.35,0,0,0-.21-.07c-.28,0-.6.22-1,.64a5,5,0,0,0-1,1.75,6.22,6.22,0,0,0-.38,1.9,1.7,1.7,0,0,0,.19.87.69.69,0,0,0,.59.29,1.48,1.48,0,0,0,.91-.42,4.27,4.27,0,0,0,.82-.89c.11-.16.21-.25.29-.25s.11,0,.11.13-.26.5-.77,1a2.45,2.45,0,0,1-1.79.79,1.43,1.43,0,0,1-1.06-.4,1.38,1.38,0,0,1-.4-1,4.44,4.44,0,0,1,.7-2.29,6.54,6.54,0,0,1,1.54-1.84,2.65,2.65,0,0,1,1.58-.66"/><path class="cls-1" d="M209,77.14a.24.24,0,0,0,.06.18.18.18,0,0,0,.15.06,1.23,1.23,0,0,0,.61-.25,4.25,4.25,0,0,0,.75-.62c.1-.11.18-.16.24-.16s.13,0,.13.11-.24.42-.72.77a2.29,2.29,0,0,1-1.32.51.9.9,0,0,1-.59-.16.47.47,0,0,1-.21-.37,11.27,11.27,0,0,1,.79-2.24,15.7,15.7,0,0,0,1-2.74.24.24,0,0,0,0-.18.17.17,0,0,0-.14-.06c-.2,0-.53.21-1,.65-.18.17-.3.25-.37.25s-.1,0-.1-.11.25-.37.75-.76a2.35,2.35,0,0,1,1.32-.57.55.55,0,0,1,.42.19.57.57,0,0,1,.17.38,1.52,1.52,0,0,1-.09.51c-.05.16-.41,1-1.06,2.55-.5,1.29-.76,2-.76,2.06m2.3-9.1a.58.58,0,0,1,.56.56.54.54,0,0,1-.17.4.53.53,0,0,1-.39.16.5.5,0,0,1-.39-.16.56.56,0,0,1,0-.8.57.57,0,0,1,.39-.16"/><path class="cls-1" d="M218.41,71.94c0,.14-.16.52-.37,1.13a17.54,17.54,0,0,0-1,3.62c0,.29.11.43.32.43s.87-.4,1.56-1.2c.09-.11.17-.16.23-.16s.13,0,.13.1-.29.46-.87,1a2.64,2.64,0,0,1-1.82.84.6.6,0,0,1-.49-.19.57.57,0,0,1-.17-.39,4.14,4.14,0,0,1,.31-1.31s.44-1.32,1.3-3.84l-.67,0-.47,0c-.07,0-.1,0-.1-.1a.43.43,0,0,1,0-.23,1.12,1.12,0,0,1,.39-.06c.22,0,.54,0,.93,0,.12-.4.27-.84.44-1.34l.28-.81a.08.08,0,0,1,.09-.06,2.15,2.15,0,0,1,.5.07q.24.06.24.15l0,0-.65,2,.88,0a2.56,2.56,0,0,1,.45,0s0,0,0,0c0,.21,0,.32-.1.32l-.53,0Z"/><path class="cls-1" d="M237,68.11a3.44,3.44,0,0,1,2.67,1.07,3.94,3.94,0,0,1,1,2.74,5.94,5.94,0,0,1-1.6,4,4.77,4.77,0,0,1-3.65,1.83,3.29,3.29,0,0,1-2.67-1.21,4.33,4.33,0,0,1-1-2.83,5.41,5.41,0,0,1,.68-2.58A6.3,6.3,0,0,1,234.25,69a4.55,4.55,0,0,1,2.7-.86m.32.34a3,3,0,0,0-1.81.72,5.54,5.54,0,0,0-1.62,2.32,8.35,8.35,0,0,0-.67,3.26,3.43,3.43,0,0,0,.48,1.86,1.59,1.59,0,0,0,1.43.77,2.77,2.77,0,0,0,1.91-.83,6.49,6.49,0,0,0,1.53-2.5,8.65,8.65,0,0,0,.63-3,3.58,3.58,0,0,0-.45-1.74,1.52,1.52,0,0,0-1.43-.83"/><path class="cls-1" d="M245.42,77.67c.66-1.81,1.11-3.1,1.34-3.86a7.56,7.56,0,0,0,.34-1.41.3.3,0,0,0,0-.18.16.16,0,0,0-.14-.06c-.21,0-.63.44-1.25,1.32-.12.17-.21.25-.27.25s-.14,0-.14-.1a3.9,3.9,0,0,1,.76-1.1c.5-.63.94-.94,1.32-.94a.58.58,0,0,1,.47.17.71.71,0,0,1,.15.5,7.7,7.7,0,0,1-.51,2c.07-.1.21-.33.43-.7.8-1.39,1.54-2.08,2.2-2.08a.73.73,0,0,1,.66.3,1.12,1.12,0,0,1,.21.68,9.47,9.47,0,0,1-.36,1.8A8.34,8.34,0,0,1,252.12,72a1.79,1.79,0,0,1,1.14-.52.84.84,0,0,1,.62.24.8.8,0,0,1,.24.6A17.18,17.18,0,0,1,253,76.06a4.94,4.94,0,0,0-.3,1,.2.2,0,0,0,0,.14.15.15,0,0,0,.13,0,1.83,1.83,0,0,0,.75-.46,5.31,5.31,0,0,0,.86-.85c.1-.13.18-.2.26-.2s.12,0,.12.09-.31.54-.94,1.1a2.69,2.69,0,0,1-1.58.83.47.47,0,0,1-.38-.17.63.63,0,0,1-.15-.43,4,4,0,0,1,.32-1.24,15,15,0,0,0,1-3.62.46.46,0,0,0-.07-.29.21.21,0,0,0-.2-.1c-.44,0-1,.55-1.62,1.66a24.64,24.64,0,0,0-1.86,4.13,4.41,4.41,0,0,1-.52,0,1.72,1.72,0,0,1-.34,0,23.17,23.17,0,0,0,1.45-4.89,1.66,1.66,0,0,0-.09-.62.31.31,0,0,0-.28-.2c-.34,0-.84.54-1.49,1.62a24.44,24.44,0,0,0-1.88,4.09l-.27,0h-.17l-.46,0"/><path class="cls-1" d="M261.78,74a8.67,8.67,0,0,1,1.42-1.88,1.85,1.85,0,0,1,1.22-.63.59.59,0,0,1,.51.23.92.92,0,0,1,.18.57,3,3,0,0,1-.12.83c-.08.29-.27.87-.58,1.74a10.91,10.91,0,0,0-.63,2.06c0,.16.07.23.2.23a1.07,1.07,0,0,0,.57-.31,2.72,2.72,0,0,0,.58-.62c.12-.21.22-.32.3-.32s.12,0,.12.14-.24.53-.73,1a2.06,2.06,0,0,1-1.39.7c-.44,0-.65-.18-.65-.54a14.88,14.88,0,0,1,1-3.29,4.9,4.9,0,0,0,.4-1.58.38.38,0,0,0-.06-.24A.2.2,0,0,0,264,72c-.15,0-.41.19-.8.55a7.52,7.52,0,0,0-1.33,1.92A25.87,25.87,0,0,0,260.63,77c-.2.48-.32.72-.39.72-.46,0-.69-.06-.69-.19l0-.07,1.2-3.46a6.43,6.43,0,0,0,.47-1.76c0-.15-.07-.22-.2-.22s-.31.12-.58.35a5.37,5.37,0,0,0-.63.67q-.18.24-.3.24c-.07,0-.1,0-.1-.11s.25-.48.77-1a2.2,2.2,0,0,1,1.48-.74.43.43,0,0,1,.35.17.61.61,0,0,1,.12.34,17.15,17.15,0,0,1-.37,2"/><path class="cls-1" d="M271.35,77.14a.24.24,0,0,0,.06.18.18.18,0,0,0,.15.06,1.23,1.23,0,0,0,.61-.25,4.25,4.25,0,0,0,.75-.62c.1-.11.18-.16.24-.16s.13,0,.13.11-.24.42-.72.77a2.32,2.32,0,0,1-1.32.51,1,1,0,0,1-.6-.16.48.48,0,0,1-.2-.37,11.27,11.27,0,0,1,.79-2.24,15.7,15.7,0,0,0,1-2.74.3.3,0,0,0-.05-.18.17.17,0,0,0-.14-.06c-.21,0-.53.21-1,.65-.18.17-.3.25-.37.25s-.1,0-.1-.11.25-.37.75-.76a2.32,2.32,0,0,1,1.32-.57.55.55,0,0,1,.42.19.57.57,0,0,1,.17.38,1.52,1.52,0,0,1-.09.51c-.06.16-.41,1-1.06,2.55a21.55,21.55,0,0,0-.76,2.06m2.3-9.1a.58.58,0,0,1,.56.56.54.54,0,0,1-.17.4.53.53,0,0,1-.39.16.54.54,0,0,1-.4-.16.58.58,0,0,1-.16-.4.54.54,0,0,1,.17-.4.57.57,0,0,1,.39-.16"/><path class="cls-1" d="M284,71.62c-.14.3-.4,1.08-.81,2.36l-.62,2a2.84,2.84,0,0,0-.2.92.21.21,0,0,0,.24.24.91.91,0,0,0,.48-.23,3.65,3.65,0,0,0,.61-.58c.13-.16.23-.24.28-.24a.11.11,0,0,1,.12.12c0,.13-.26.41-.77.85a2.28,2.28,0,0,1-1.38.66c-.28,0-.41-.19-.41-.56s0-.59,0-1a3,3,0,0,1-2.29,1.48.84.84,0,0,1-.77-.38,1.54,1.54,0,0,1-.25-.85,5.48,5.48,0,0,1,1.37-3.15q1.36-1.77,2.58-1.77a.63.63,0,0,1,.5.21,1.21,1.21,0,0,1,.24.67c.09-.21.22-.5.41-.85l.43.07a.74.74,0,0,0,.2,0m-2.18.25a1.62,1.62,0,0,0-1,.59,5.13,5.13,0,0,0-1,1.74,5.36,5.36,0,0,0-.46,1.92,1.21,1.21,0,0,0,.16.69.56.56,0,0,0,.48.23c.55,0,1.1-.51,1.66-1.51a5.69,5.69,0,0,0,.84-2.73,1.22,1.22,0,0,0-.17-.67.53.53,0,0,0-.45-.26"/><rect class="cls-1" x="162.22" y="42.12" width="1.37" height="11.44"/><path class="cls-1" d="M44.65,83c-2.75-.58-34.72-8.14-43.46-45.2,0,0,9.47-21.93,40.33-31.58.24-.47.47-.94.67-1.4C9.88,14.7,0,37.61,0,37.61,9.42,77.55,45,84.28,45,84.28q-.16-.59-.39-1.26"/><path class="cls-1" d="M45,84.28c-.85-3.11-3.28-8.88-8.53-9.21-9-.55-15.87-7-15.93-7.1C10.66,61,14.44,36,16,27.66c.24,14.7,4.14,23.38,12.81,28.78,7,4.36,9.82,7.64,9.82,7.64-1.19-4.26-6.88-8.27-8.28-9.54-7.61-7-10.89-14-10.41-21.15.46-6.8,4.85-13.12,12-17.35A24,24,0,0,0,43.71.17c0,4.29,0,10.84-.07,18.91C43.47,32,40.05,33.8,34.88,36.5c-.58.3-1.17.61-1.78,1a6.7,6.7,0,0,0-3.58,5.25c-.6,4.75,2.73,11,8.9,16.76,7.33,6.85,7,20,6.62,24.82"/><path class="cls-1" d="M47.77,82.91c-.31-6,.11-17.48,6.85-23.77,6.43-6,9.91-12.57,9.28-17.57a7.25,7.25,0,0,0-3.85-5.65c-.62-.35-1.22-.66-1.8-1l0,0c-5.24-2.74-8.71-4.55-8.88-17.72-.1-7.13-.11-13-.09-17.21A25,25,0,0,0,60.86,14.34C68.22,18.65,72.69,25.09,73.16,32c.58,8.61-4.93,17.72-15.93,26.37a24.58,24.58,0,0,0-3.6,4.51,3.72,3.72,0,0,0-.26,1.92,2.9,2.9,0,0,1,1-1.22,58.36,58.36,0,0,1,10.15-7.53C73,50.75,77.05,42.57,77.75,29c1.66,10.07,4.07,32-5.06,38.42l0,0,0,0c-.74.68-7.48,6.72-16.29,7.27-5,.31-7.52,5.23-8.59,8.17"/></g></g></svg>