<svg xmlns="http://www.w3.org/2000/svg" viewBox="0 0 140.05 160.82"><defs><style>.cls-1{fill:#033676;}</style></defs><g id="Layer_2" data-name="Layer 2"><g id="Layer_1-2" data-name="Layer 1"><path class="cls-1" d="M65.61,34.28A15.37,15.37,0,0,0,67.8,37a4.42,4.42,0,0,1,1.53,4.65C68,49.83,67,58.07,65.5,66.21c-.64,3.4-.08,6,2.22,8.44.79.84,1.41,1.84,2.37,3.1,2.56-3.55,5.88-6,4.8-11.22-1.78-8.59-2.77-17.35-4-26.05a3.47,3.47,0,0,1,.56-2.27c1-1.51,2.28-2.88,3.09-3.87,4.57,2.34,8.41,4.15,12.09,6.25,6.18,3.54,9.65,9.54,13.62,15.16,4.42,6.27,4.63,12.42.92,19-2.22,3.93-4.27,8-6.44,11.92A5.93,5.93,0,0,1,88.09,90c-2.58-.38-2.49,2.16-3.2,3.64a6.18,6.18,0,0,0-.09,2.48q0,27.76,0,55.52c0,1,0,2-.08,3a6.57,6.57,0,0,1-13,.72,16.76,16.76,0,0,1-.21-3.25V103.42a6,6,0,0,0-.07-2,1.86,1.86,0,0,0-1.25-1.09,1.82,1.82,0,0,0-1.3,1,5.66,5.66,0,0,0-.08,2q0,24.87-.07,49.74c0,4.75-2.68,7.75-6.72,7.73a6.56,6.56,0,0,1-6.44-5.58,25.63,25.63,0,0,1-.15-3.51q0-28.12,0-56.26a10.92,10.92,0,0,0-.57-3.4c-.54-1.62-1.39-2.58-3.51-2s-4-.54-5.14-2.38C42.2,81.35,38.28,75,36.57,67.61a9.87,9.87,0,0,1,.65-6.21A105.53,105.53,0,0,1,44.7,49,27.82,27.82,0,0,1,57.18,38.78,94.47,94.47,0,0,0,65.61,34.28Z"/><path class="cls-1" d="M107.13,57c4.18,2.33,5.09,4.92,4.42,8.66-1.09,6.09-1.66,12.27-2.42,18.41-.53,4.27.06,5.68,3.4,8.61,3.12-2.6,4-5.72,3.18-9.79-1.24-6.57-1.9-13.25-2.79-19.89-.22-1.59,1.85-4.77,3.43-5.32a1.24,1.24,0,0,1,.93,0c3.86,2.29,8,4.26,11.48,7,5.09,4,8.28,9.62,10.82,15.49a7.06,7.06,0,0,1,0,5.08c-2.31,5.27-4.86,10.45-7.65,15.48-.62,1.13-2.5,1.94-3.91,2.15-2.34.35-3.45,1.08-3.63,3.52-.06.75,0,1.5,0,2.26v44.2c0,.92,0,1.85-.06,2.76a5.37,5.37,0,0,1-5.44,5.15,5.52,5.52,0,0,1-5.39-5.24c-.06-.75,0-1.5,0-2.26V111.49c-2.11-.64-2.21.51-2.21,1.79,0,3.51,0,7,0,10.55q0,14.56-.06,29.13a25.16,25.16,0,0,1-.11,3,5.3,5.3,0,0,1-5.44,4.85,5.5,5.5,0,0,1-5.3-5.06c-.08-.83,0-1.67,0-2.51q0-22.84,0-45.71a7.19,7.19,0,0,0-.71-3.32A2.76,2.76,0,0,0,97.33,103a4.88,4.88,0,0,1-4.86-2.44c-1-1.7-2-3.44-3.2-5.44a11.29,11.29,0,0,0,2.31-.66C93.51,93.4,96,92.63,97.16,91c4.89-7,9-14.49,11.15-22.88a11.46,11.46,0,0,0-.75-8.07A12.75,12.75,0,0,1,107.13,57Zm19.64,34.35c4.83-6.56,4.8-10.44,0-14.76Z"/><path class="cls-1" d="M51,95a53.8,53.8,0,0,1-3.94,6.27,5.5,5.5,0,0,1-3.44,1.63c-2.54.26-3.59,1.09-3.7,3.67,0,.75,0,1.51,0,2.26v44.45a19.49,19.49,0,0,1-.08,2.76,5.48,5.48,0,0,1-5.33,4.74,5.29,5.29,0,0,1-5.34-4.67,23.64,23.64,0,0,1-.14-3.26V114.46a6.27,6.27,0,0,0-.08-2c-.18-.49-.79-.82-1.21-1.22-.32.4-.79.75-.91,1.19a8.33,8.33,0,0,0,0,2l0,38.93a21,21,0,0,1-.06,2.51,5.51,5.51,0,0,1-5.43,4.93,5.35,5.35,0,0,1-5.36-5,25.37,25.37,0,0,1-.08-2.76V108.14a7.9,7.9,0,0,0-.1-2.49c-.51-1.49-.75-3.07-3.27-2.81a5.36,5.36,0,0,1-4.29-2.22C5.43,95.85,3.07,90.85.74,85.86a7.14,7.14,0,0,1,.51-7.2C3.66,75,5.7,70.92,8.6,67.64,11,65,14.25,63.08,17.28,61.05A69.78,69.78,0,0,1,23.7,57.6c2.94,1.69,4.08,4,3.42,7.78a188.87,188.87,0,0,0-2.57,20.91c-.14,2.13,1.74,4.38,3.07,6.51,2.4-2.45,4.61-4.34,3.88-8.2-1.32-7.07-2-14.25-3-21.38-.23-1.77,1.75-5,3.37-5.59.27-.09.81-.05.88.1.19.4.42,1,.25,1.32-3.32,6-.82,11.62,1.65,17,2.19,4.78,4.87,9.34,7.47,13.92C44,93.12,47,94.41,51,95ZM13.51,76.25c-5.09,5.66-5,10,0,14.91Z"/><path class="cls-1" d="M84.71,14.58c-.87,3.55-1.41,7.23-2.71,10.61-2,5.22-5.83,8.54-11.72,8.7-5.21.14-9.86-3.25-12.07-8.66A29.61,29.61,0,0,1,56.12,12c.45-6.86,4-10.8,10.78-11.74a22.72,22.72,0,0,1,6.74,0C81.11,1.5,84.6,6.29,84.71,14.58Z"/><path class="cls-1" d="M100.8,40.82c0-4.2.75-8.22,5-10.14,4.81-2.16,9.84-2.26,14.34.8a8.55,8.55,0,0,1,3.14,4.63A20,20,0,0,1,121,51.82c-4.18,6.87-13.28,7-17.25,0-1.83-3.24-2.48-7.14-3.66-10.73Z"/><path class="cls-1" d="M39.43,41.1c-.1,4.35-.91,8.51-3.73,12a9.76,9.76,0,0,1-16.05-.63c-3.36-5-3.94-10.6-2.69-16.35.67-3.06,2.71-5.46,5.81-6A28.91,28.91,0,0,1,32.63,30C37.5,31,39.58,34.91,39.43,41.1Z"/></g></g></svg>