<?xml version="1.0" encoding="utf-8"?>
<!-- Generator: Adobe Illustrator 25.2.3, SVG Export Plug-In . SVG Version: 6.00 Build 0)  -->
<svg version="1.1" id="Layer_1" xmlns="http://www.w3.org/2000/svg" xmlns:xlink="http://www.w3.org/1999/xlink" x="0px" y="0px"
	 viewBox="0 0 512 512" style="enable-background:new 0 0 512 512;" xml:space="preserve">
<style type="text/css">
	.st0{fill:#3055A5;}
	.st1{fill:#F1F0F0;}
	.st2{fill:#204899;}
	.st3{fill:#214898;}
	.st4{fill:#D1D0D0;}
	.st5{fill:#D8D8D8;}
	.st6{fill:#224A9A;}
	.st7{fill:#1F4796;}
	.st8{fill:#B6B5B5;}
	.st9{fill:#16244B;}
	.st10{fill:#101E40;}
	.st11{fill:#23366E;}
	.st12{fill:#9E9E9E;}
	.st13{fill:#202F5F;}
	.st14{fill:#243A76;}
	.st15{fill:#1E2C5A;}
	.st16{fill:#1C2955;}
	.st17{fill:#0D1B3A;}
	.st18{fill:#0C1A37;}
	.st19{fill:#494949;}
	.st20{fill:#101E41;}
	.st21{fill:#D12227;}
	.st22{fill:#F8F9FA;}
	.st23{fill:#66B946;}
	.st24{fill:#F79421;}
	.st25{fill:#E0E0DF;}
	.st26{fill:#C87929;}
	.st27{fill:#59A545;}
	.st28{fill:#E38726;}
	.st29{fill:#396631;}
	.st30{fill:#36602F;}
	.st31{fill:#6F6E6F;}
	.st32{fill:#FFFFFF;}
</style>
<g>
	<g>
		<path class="st0" d="M161.4,388.6c-0.2,0-0.4,0-0.7,0c-0.6-0.2-1.2-0.2-1.8,0c-1.2,0-2.4,0-3.5,0c-0.7-0.2-1.3-0.2-2,0
			c-0.2,0-0.4,0-0.7,0c-0.4-0.2-0.8-0.1-1.2-0.1c-0.3,0-0.7,0-1,0c-10.1,0-20-1.9-29.7-4.6c-8.1-2.2-15.9-5.3-23.3-9.1
			c-10.2-5.2-19.7-11.6-28.3-19.1c-11-9.7-20.1-20.9-27.4-33.5c-8.5-14.8-14-30.7-16.3-47.7c-0.5-3.9-0.8-7.8-0.8-11.7
			c0-0.3,0-0.7,0-1c-0.1-0.4,0.1-0.8-0.1-1.2c0-0.2,0-0.4,0-0.7c0.2-0.9,0.2-1.8,0-2.7c0-0.4,0-0.9,0-1.3c0.3-0.3,0.7-0.4,1.1-0.4
			c5.4,0,10.7-0.1,16.1,0c0.4,0,0.7-0.1,1.1-0.1c10.8,0,21.6,0,32.4,0c0.3,0,0.7,0,1,0c5.2,0,10.5,0,15.7,0c1.4,0,1.5,0,1.5-1.5
			c0-11.6,0-23.3,0-34.9c0-0.7-0.3-1.7,0.4-2c0.8-0.3,1.3,0.7,1.8,1.2c12,12,24,23.9,35.9,36c1,1,1.9,1.4,3.3,1.4
			c6.8-0.1,13.6,0,20.4,0c0.5,0,1.1,0.2,1.5-0.4c0-5.1,0-10.3,0-15.4c0.1-2.5,0-4.9,0-7.4c0-0.5-0.2-1-0.6-1.4
			c-0.3-0.3-0.6-0.6-0.9-0.9c-11.9-12-23.9-23.9-35.8-35.9c-0.5-0.5-1.4-1-1.1-1.6c0.3-0.8,1.3-0.5,2-0.5c11.6,0,23.2,0,34.8,0
			c1.7,0,1.7,0,1.7-1.7c0-5.2,0-10.3,0-15.5c-0.1-0.6,0-1.1,0-1.7c0-10.4,0-20.9,0-31.3c0-0.5,0-1,0.1-1.4c-0.1-4.8,0-9.6-0.1-14.4
			c0-0.6,0-1.1,0-1.7c0-0.4,0.1-0.9,0.4-1.2c0.6,0,1.2,0,1.8,0c0.7,0.2,1.3,0.1,2,0.1c0.5,0,1,0,1.5,0c0.5,0,1,0,1.5,0
			c9.4,0,18.6,1.7,27.7,4.1c9,2.4,17.6,5.7,25.8,9.9c9.1,4.7,17.7,10.3,25.5,17c3.6,3,7.1,6.2,10.3,9.7c7.7,8.1,14.4,17.1,19.9,26.8
			c4.4,7.8,7.9,15.9,10.6,24.3c2.7,8.5,4.6,17.1,5.5,26c0.3,2.8,0.4,5.6,0.4,8.5c0,0.5,0,1,0,1.5c0,0.4,0,0.7,0,1.1
			c0.1,0.8-0.1,1.6,0.1,2.4c0,0.9,0,1.8,0,2.7c-0.2,0.9-0.2,1.8,0,2.7c0,0.2,0,0.4,0,0.7c-0.2,0.4-0.1,0.8-0.1,1.2c0,0.3,0,0.7,0,1
			c-0.1,9.9-1.9,19.6-4.5,29.2c-2.3,8.3-5.4,16.2-9.3,23.9c-5.1,10.2-11.5,19.5-19,28.1c-9.7,11-20.9,20.1-33.5,27.4
			c-13.2,7.6-27.4,12.8-42.4,15.5c-5.7,1-11.3,1.7-17.1,1.7c-0.3,0-0.7,0-1,0C162.3,388.6,161.8,388.4,161.4,388.6z"/>
		<path class="st1" d="M92,140.6c4-2.5,8.2-4.4,12.5-6.3c9.5-4.1,19.3-7.1,29.5-8.9c5.3-1,10.7-1.6,16.1-1.8c0.2,0,0.5,0.1,0.6-0.2
			c0.7,0,1.3,0,2,0c0.6,0.2,1.2,0.1,1.8,0.1c0.7-0.1,1.5,0.1,2.2-0.1c0.2,0,0.4,0,0.7,0c0,5.8,0,11.5-0.1,17.3
			c-0.6,0.5-1.3,0.4-1.9,0.4c-6.8,0-13.6,0-20.4,0c-13.6,0-27.2,0-40.8,0C93.3,141,92.6,141.2,92,140.6z"/>
		<path class="st1" d="M24.8,249.1c1.1-20.4,6.5-39.5,16.4-57.4c0.2-0.3,0.4-0.7,0.6-1c0.3,0.3,0.4,0.7,0.4,1.1c0,0.4,0,0.8,0,1.2
			c0,20.2,0,40.4,0,60.7c0,0.8,0.2,1.6-0.4,2.2c-5.8,0-11.5,0-17.3,0.1c0-0.4,0-0.9,0-1.3c0.2-0.8,0.1-1.6,0.1-2.3
			c-0.1-0.5,0.1-1-0.1-1.4c0-0.2,0-0.4,0-0.7C24.8,249.9,24.6,249.5,24.8,249.1z"/>
		<path class="st2" d="M289.8,260c-0.4-0.9-0.3-1.8,0-2.7C289.8,258.2,289.8,259.1,289.8,260z"/>
		<path class="st3" d="M24.6,257.3c0.3,0.9,0.4,1.8,0,2.7C24.6,259.1,24.6,258.2,24.6,257.3z"/>
		<path class="st2" d="M289.8,254.7c-0.5-0.8-0.1-1.6-0.2-2.4c0.1-0.1,0.1-0.1,0.2,0C289.8,253.1,289.8,253.9,289.8,254.7z"/>
		<path class="st4" d="M24.8,252.2c0,0.8,0.2,1.7-0.2,2.5c0-0.8,0-1.6,0-2.4C24.6,252.1,24.7,252.1,24.8,252.2z"/>
		<path class="st5" d="M156.5,123.4c-0.7,0.4-1.5,0.2-2.2,0.2c-0.1-0.1-0.1-0.1,0-0.1c0,0,0-0.1,0.1-0.1
			C155.1,123.4,155.8,123.4,156.5,123.4z"/>
		<path class="st6" d="M161,123.6c-0.7-0.1-1.4,0.2-2-0.2c0.7,0,1.3,0,2,0C161,123.4,161.1,123.4,161,123.6
			C161,123.5,161,123.6,161,123.6z"/>
		<path class="st7" d="M153.4,388.6c0.7-0.4,1.3-0.3,2,0C154.8,388.6,154.1,388.6,153.4,388.6z"/>
		<path class="st8" d="M154.3,123.4c0,0.1,0,0.1,0,0.2c-0.6-0.1-1.2,0.3-1.7-0.2C153.2,123.4,153.7,123.4,154.3,123.4z"/>
		<path class="st7" d="M159,388.6c0.6-0.3,1.2-0.3,1.8,0C160.2,388.6,159.6,388.6,159,388.6z"/>
		<path class="st9" d="M289.7,249.6c0.1,0,0.1,0,0.2,0c0,0.5,0,1,0,1.5c-0.1,0.1-0.1,0.1-0.2,0C289.7,250.6,289.7,250.1,289.7,249.6
			z"/>
		<path class="st10" d="M164.1,123.4c0,0.1,0,0.1,0,0.2c-0.5,0-1,0-1.5,0c-0.1,0-0.1-0.1-0.1-0.1c0,0,0.1-0.1,0.1-0.1
			C163,123.4,163.5,123.4,164.1,123.4z"/>
		<path class="st11" d="M162.5,123.4c0,0.1,0,0.1,0,0.2c-0.5,0-1,0-1.5,0c0-0.1,0-0.1,0-0.2C161.5,123.4,162,123.4,162.5,123.4z"/>
		<path class="st12" d="M24.8,252.2c-0.1,0-0.1,0-0.2,0c0-0.4,0-0.9,0-1.3C25,251.3,24.7,251.8,24.8,252.2z"/>
		<path class="st13" d="M161.4,388.6c0.4-0.4,0.9-0.2,1.3-0.2c0.1,0,0.1,0.1,0.1,0.1c0,0-0.1,0.1-0.1,0.1
			C162.3,388.6,161.9,388.6,161.4,388.6z"/>
		<path class="st14" d="M289.7,251.1c0.1,0,0.1,0,0.2,0c0,0.4,0,0.7,0,1.1l-0.1,0c0,0-0.1,0-0.1,0
			C289.6,251.9,289.6,251.5,289.7,251.1z"/>
		<path class="st15" d="M24.6,260.6c0.4,0.3,0.2,0.7,0.2,1.1c-0.1,0.1-0.1,0.1-0.2,0C24.6,261.4,24.6,261,24.6,260.6z"/>
		<path class="st16" d="M289.7,261.8c0-0.4-0.2-0.8,0.2-1.1c0,0.4,0,0.7,0,1.1C289.8,261.8,289.7,261.9,289.7,261.8z"/>
		<path class="st17" d="M24.6,261.7c0.1,0,0.1,0,0.2,0c0,0.4,0,0.7,0,1.1c-0.1,0-0.1,0-0.2,0C24.6,262.5,24.6,262.1,24.6,261.7z"/>
		<path class="st18" d="M289.7,261.8c0.1,0,0.1,0,0.2,0c0,0.4,0,0.7,0,1.1c-0.1,0-0.1,0-0.2,0C289.7,262.5,289.7,262.1,289.7,261.8z
			"/>
		<path class="st19" d="M24.8,249.1c0,0.4,0.2,0.8-0.2,1.1c0-0.4,0-0.7,0-1.1C24.6,249.1,24.7,249.1,24.8,249.1z"/>
		<path class="st20" d="M150.6,388.6c0-0.1,0-0.1,0-0.2c0.4,0,0.7,0,1.1,0c0.1,0,0.1,0.1,0.1,0.1c0,0-0.1,0.1-0.1,0.1
			C151.3,388.6,150.9,388.6,150.6,388.6z"/>
		<path class="st13" d="M151.7,388.6c0-0.1,0-0.1,0-0.2c0.4,0,0.8-0.2,1.1,0.2C152.4,388.6,152,388.6,151.7,388.6z"/>
		<path class="st20" d="M162.7,388.6c0-0.1,0-0.1,0-0.2c0.4,0,0.7,0,1.1,0c0,0.1,0,0.1,0,0.2C163.5,388.6,163.1,388.6,162.7,388.6z"
			/>
		<path class="st21" d="M41.9,255.9c0-21.4,0-42.7,0-64.1c0-0.4,0-0.7,0-1.1c0.4-1.3,1.2-2.3,1.9-3.5c4.6-7.5,9.8-14.5,15.8-21
			c9.3-10.1,19.8-18.5,31.7-25.4c0.2-0.1,0.5-0.2,0.8-0.3c0.4,0,0.7,0,1.1,0c21.4,0,42.7,0,64.1,0c0,0.4,0.1,0.7,0.1,1.1
			c0,10.8,0,21.6,0,32.4c0,0.4,0,0.7,0,1.1c-0.3,0.4-0.8,0.4-1.2,0.4c-0.5,0-1,0-1.5,0c-25.1,0-50.2,0-75.2,0
			c-2.4,0-2.2-0.2-2.2,2.2c0,25.2,0,50.5,0,75.7c0,0.8,0.2,1.6-0.4,2.3c-0.6,0-1.2,0-1.9,0c-10.5,0-21,0-31.5,0
			C42.7,256,42.3,256,41.9,255.9z"/>
		<path class="st1" d="M76.5,256c0-26.5,0-53,0-79.5c0-0.9,0.2-1.1,1.1-1.1c26.5,0,53,0,79.5,0c0,5.5,0,11,0.1,16.6
			c0,0.6-0.2,0.8-0.8,0.7c-0.3,0-0.5,0-0.8,0c-12,0-24,0-36,0c-0.4,0-0.8,0-1.2,0c0.2,0.5,0.5,0.7,0.8,1
			c12.4,12.4,24.8,24.8,37.2,37.2c0.6,0.6,0.8,1.1,0.8,1.9c-0.1,2.3,0,4.6-0.1,7c-0.7,0.1-1-0.4-1.3-0.8c-4.8-4.8-9.5-9.5-14.3-14.3
			c-10.2-10.2-20.3-20.3-30.5-30.5c-0.8-0.8-1.7-1.2-2.8-1.2c-4.5,0.1-8.9,0-13.5,0c0.2,0.4,0.5,0.7,0.8,0.9
			c20.1,20.1,40.3,40.3,60.4,60.4c0.5,0.5,1.1,0.9,1.2,1.7c-0.4,0.2-0.8,0.1-1.2,0.1c-7.4,0-14.8,0-22.2,0c-0.7,0-1.2-0.2-1.7-0.7
			c-12.4-12.4-24.8-24.8-37.2-37.3c-0.3-0.3-0.6-0.5-1-0.9c0,0.6,0,1,0,1.4c0,12.1,0,24.2,0,36.3c0,0.9-0.1,1.2-1.2,1.2
			C87.2,256,81.9,256,76.5,256z"/>
		<path class="st1" d="M75,316.1c3.9-3.1,7.7-6.1,11.4-9.1c1.8-1.4,1.8-1.4,0.8-3.3c-1.9-4-3.9-8-5.8-12c-0.2-0.4-0.3-0.7-0.6-1.2
			c3.1,0.7,6.1,1.4,9.1,2.1c2.1,0.5,4.3,0.9,6.4,1.5c0.7,0.2,1,0,1.2-0.6c2.1-4.4,4.2-8.8,6.3-13.1c0.2-0.4,0.4-0.7,0.5-1.1
			c0.4,0.2,0.4,0.5,0.6,0.8c2.1,4.4,4.3,8.9,6.4,13.3c0.3,0.7,0.6,0.9,1.4,0.7c5.1-1.2,10.2-2.4,15.4-3.6c-0.2,0.5-0.4,0.9-0.5,1.2
			c-2.1,4.4-4.2,8.7-6.4,13.1c-0.3,0.7-0.3,1,0.3,1.4c4.1,3.2,8.2,6.5,12.4,9.8c-1,0.5-2,0.6-3,0.8c-4.2,0.9-8.3,1.9-12.5,2.8
			c-0.7,0.2-0.9,0.5-0.9,1.2c0,4.8,0,9.6,0.1,14.5c0,0.4,0,0.8,0,1.4c-2.2-1.8-4.2-3.4-6.3-5c-2-1.6-4.1-3.2-6.1-4.9
			c-0.6-0.5-1-0.4-1.6,0c-3.8,3.1-7.7,6.2-11.5,9.3c-0.2,0.2-0.4,0.4-0.9,0.4c0-0.3,0-0.7,0-1c0-4.8,0-9.7,0.1-14.5
			c0-0.8-0.1-1.2-1.1-1.4c-4.9-1-9.8-2.2-14.6-3.3C75.6,316.3,75.4,316.2,75,316.1z"/>
		<path class="st21" d="M157.1,255.9c-0.2-0.2-0.5-0.4-0.7-0.7c-20.6-20.6-41.1-41.1-61.7-61.7c-0.3-0.3-0.6-0.5-0.9-0.7
			c0.4-0.4,0.7-0.3,1-0.3c4.5,0,9.1,0,13.6,0c1.1,0,1.9,0.4,2.7,1.1c15.1,15.1,30.1,30.2,45.2,45.3c0.2,0.2,0.5,0.4,0.7,0.7
			C157.2,245,157.3,250.4,157.1,255.9z"/>
		<path class="st1" d="M259.3,244.5c-2-1.6-3.8-3-5.6-4.5c-0.7-0.6-1.2-0.7-2,0c-1.7,1.5-3.6,2.9-5.4,4.4c-0.3-0.4-0.2-0.8-0.2-1.2
			c0-2,0-4.1,0-6.1c0-0.7-0.1-1.1-1-1.3c-2.3-0.5-4.6-1-7-1.6c-0.1-0.4,0.2-0.4,0.4-0.6c1.7-1.4,3.4-2.7,5.1-4
			c0.6-0.5,0.8-0.8,0.4-1.6c-1.1-2.1-2.1-4.3-3.2-6.7c1.8,0.4,3.4,0.7,4.9,1.1c1.1,0.2,2.4,0.9,3.2,0.6c0.8-0.4,1.1-1.8,1.6-2.8
			c0.7-1.4,1.3-2.8,2-4.2c0-0.1,0.1-0.1,0.3-0.3c0.9,1.8,1.7,3.6,2.6,5.4c1,2.1,1,2.1,3.2,1.5c1.9-0.5,3.8-0.9,6-1.4
			c-1.1,2.2-2,4.1-3,6.1c-0.7,1.5-0.7,1.5,0.6,2.5c1.7,1.3,3.4,2.7,5.3,4.2c-1.6,0.4-3,0.7-4.4,1c-1,0.2-1.9,0.5-2.9,0.6
			c-0.8,0.1-0.9,0.5-0.9,1.2C259.3,239.4,259.3,241.8,259.3,244.5z"/>
		<path class="st1" d="M182.7,255.8c0-2.4,0-4.8,0-7.2c0-0.8-0.2-1.1-1-1.3c-2.3-0.5-4.6-1-7.2-1.6c1.9-1.6,3.7-3,5.6-4.4
			c0.9-0.6,0.9-1.1,0.5-2c-1.1-2-2-4.1-3-6.2c0.7-0.2,1.3,0.1,2,0.3c1.8,0.4,3.5,0.8,5.3,1.2c0.7,0.2,1,0.1,1.3-0.6
			c0.9-1.9,1.8-3.9,2.7-5.8c0.1-0.3,0.2-0.6,0.6-0.8c1.1,2.2,2.1,4.4,3.2,6.6c0.3,0.6,0.6,0.8,1.2,0.6c2.3-0.6,4.7-1.1,7.2-1.7
			c-0.2,0.9-0.6,1.6-1,2.3c-0.7,1.5-1.4,3-2.2,4.5c-0.3,0.6-0.3,0.9,0.3,1.3c2,1.5,3.9,3,5.9,4.7c-2.5,0.6-4.8,1.2-7.1,1.6
			c-1,0.2-1.1,0.6-1.1,1.5c0.1,2.3,0,4.7,0,7.2c-2-1.6-4-3.1-5.8-4.7c-0.6-0.5-1-0.5-1.6,0c-1.6,1.3-3.2,2.6-4.8,3.9
			C183.4,255.4,183.2,255.8,182.7,255.8z"/>
		<path class="st1" d="M223.4,336.7c-2.1-1.7-4-3.2-5.9-4.7c-0.5-0.4-0.9-0.4-1.4,0c-1.9,1.5-3.8,3-5.9,4.7c0-1,0-1.9,0-2.7
			c0-1.6,0-3.2,0-4.9c0-0.7-0.3-1-0.9-1.1c-2-0.4-4.1-0.9-6.1-1.4c-0.3-0.1-0.7-0.2-1.2-0.3c2-1.6,3.8-3.1,5.7-4.5
			c0.7-0.5,0.8-0.9,0.4-1.7c-1.1-2.1-2.1-4.3-3.2-6.6c2.6,0.6,5,1.1,7.4,1.7c0.7,0.2,1,0,1.2-0.6c1-2.2,2.1-4.4,3.2-6.8
			c1.1,2.4,2.2,4.5,3.2,6.8c0.3,0.6,0.6,0.8,1.3,0.7c2.3-0.6,4.7-1.1,7.3-1.7c-0.9,1.8-1.6,3.4-2.4,5.1c-1.2,2.5-1.2,2.5,0.9,4.2
			c1.4,1.1,2.9,2.3,4.5,3.6c-2.5,0.6-4.8,1.1-7.1,1.6c-0.8,0.2-1.2,0.4-1.2,1.4C223.5,331.8,223.4,334.1,223.4,336.7z"/>
		<path class="st1" d="M203.7,179.1c2.6,0.6,4.9,1.1,7.3,1.7c0.8,0.2,1.1,0,1.4-0.7c1-2.2,2.1-4.4,3.2-6.7c1.1,2.3,2.2,4.4,3.1,6.6
			c0.3,0.8,0.7,1,1.5,0.8c2.3-0.6,4.6-1.1,7.2-1.7c-1.1,2.3-2.1,4.4-3.1,6.4c-0.4,0.8-0.4,1.3,0.4,1.9c1.9,1.4,3.7,2.9,5.7,4.5
			c-2.4,0.6-4.7,1.1-7,1.6c-0.9,0.2-1.3,0.5-1.3,1.5c0.1,2.3,0,4.6,0,7.2c-1.6-1.3-3.1-2.5-4.6-3.7c-1.9-1.5-1.9-1.5-3.8,0
			c-1.5,1.2-3,2.4-4.6,3.6c-0.3-0.5-0.1-1.1-0.1-1.5c0-2,0-3.9,0-5.9c0-0.8-0.3-1-0.9-1.2c-2.4-0.5-4.7-1-7.3-1.6
			c1.7-1.4,3.3-2.7,4.9-3.9c1.7-1.3,1.7-1.3,0.7-3.3C205.6,183,204.7,181.2,203.7,179.1z"/>
	</g>
	<g>
		<path class="st22" d="M360.2,124.7c0.5,0,1,0,1.6,0c4.4,0.7,8.8,0.4,13.2,1.2c5.6,1,11,2.5,16.5,4c1.1,0.3,2.3,0.7,2.9,1.9
			c0.5,1.3,0.4,2.7,0.4,4.1c0,80.9,0,161.8,0,242.6c0,1.4,0.1,2.8-0.3,4.1c-0.7,1.5-2.2,1.8-3.6,2.2c-9.2,2.7-18.6,4.9-28.3,4.8
			c-0.3,0-0.5,0.1-0.7,0.3c-0.3,0-0.7,0-1,0c-0.3-0.3-0.7-0.3-1,0c-1.2,0-2.4,0-3.6,0c-1-0.4-2.1-0.4-3.1,0c-0.7,0-1.4,0-2.1,0
			c-1.2-0.4-2.4-0.4-3.6,0c-2.1,0-4.1,0-6.2,0c-5-0.7-10-0.7-15-1.8c-4.7-1.1-9.3-2.2-13.9-3.6c-1.1-0.3-2.1-0.7-2.7-1.8
			c-0.5-1.3-0.4-2.7-0.4-4.1c0-80.9,0-161.7,0-242.6c0-1.4-0.1-2.8,0.3-4.1c0.5-1.3,1.8-1.5,2.9-1.9c9.1-2.9,18.4-5,28-5.1
			c0.3,0,0.5-0.1,0.7-0.3c0.9,0,1.7,0,2.6,0c0.3,0.3,0.7,0.3,1,0c0.9,0,1.7,0,2.6,0c1.2,0.4,2.4,0.4,3.6,0c0.7,0,1.4,0,2.1,0
			c1.2,0.4,2.4,0.4,3.6,0c0.9,0,1.7,0,2.6,0C359.5,125,359.9,125,360.2,124.7z"/>
		<path class="st23" d="M312.7,130.3c0,0.6,0.1,1.2,0.1,1.8c0,82.6,0,165.1,0,247.7c0,0.6,0,1.2-0.1,1.8c-1.1,0.7-2,0-2.9-0.3
			c-15.4-5.5-29.3-13.5-41.6-24.2c-14.5-12.5-25.8-27.3-34-44.5c-5.8-12.4-9.6-25.3-11.4-38.8c-0.3-2.3,0-4.6-0.6-6.9
			c0-0.9,0-1.7,0-2.6c0.3-0.3,0.3-0.7,0-1c0-0.9,0-1.7,0-2.6c0.4-1,0.4-2.1,0-3.1c0-1,0-2.1,0-3.1c0.4-1,0.4-2.1,0-3.1
			c0-0.7,0-1.4,0-2.1c0.4-0.5,0.4-1,0-1.6c0-0.9,0-1.7,0-2.6c0.5-7.2,1.6-14.3,3.3-21.4c5.1-20.2,14.4-38.2,27.9-54.1
			c14.5-16.9,32.1-29.5,52.8-37.7C308.2,131.2,310.3,129.8,312.7,130.3z"/>
		<path class="st24" d="M396.8,381.7c0-0.6-0.1-1.2-0.1-1.8c0-82.6,0-165.1,0-247.7c0-0.6,0-1.2,0.1-1.8c0.9-0.7,1.8-0.2,2.7,0.2
			c21.3,7.6,39.6,19.9,54.6,36.7c18,20.2,29,43.9,32.7,70.8c0.3,2.5,0,5.1,0.6,7.7c0,1.4,0,2.8,0,4.1c-0.6,1-0.1,2-0.3,3
			c0.1,0.9-0.3,1.8,0.3,2.7c0,0.3,0,0.7,0,1c-0.5,0.8-0.1,1.8-0.3,2.6c0.1,1-0.3,2.1,0.3,3.1c0,1.6,0,3.1,0,4.7
			c-0.5,8-1.8,15.9-3.9,23.6c-5.2,19.1-14.1,36.3-26.9,51.4c-15.4,18.2-34.4,31.4-56.9,39.6C398.8,381.7,397.9,382.4,396.8,381.7z"
			/>
		<path class="st22" d="M353.8,123.4c-1.2,0.8-2.4,0.8-3.6,0C351.3,123.4,352.5,123.4,353.8,123.4z"/>
		<path class="st22" d="M359.5,123.4c-1.2,0.8-2.4,0.8-3.6,0C357,123.4,358.2,123.4,359.5,123.4z"/>
		<path class="st25" d="M350.1,388.6c1.2-0.8,2.4-0.8,3.6,0C352.5,388.6,351.3,388.6,350.1,388.6z"/>
		<path class="st26" d="M486.9,252.9c0.2-1-0.5-2.2,0.5-3.1c0,1,0,2.1,0,3.1C487.3,253.1,487.1,253.1,486.9,252.9z"/>
		<path class="st27" d="M222.2,251.3c0.8,1,0.8,2.1,0,3.1C222.2,253.4,222.2,252.4,222.2,251.3z"/>
		<path class="st27" d="M222.2,257.6c0.8,1,0.8,2.1,0,3.1C222.2,259.6,222.2,258.6,222.2,257.6z"/>
		<path class="st26" d="M487.4,262.2c-1-0.9-0.3-2.1-0.5-3.1c0.2-0.3,0.3-0.3,0.5,0C487.4,260.1,487.4,261.2,487.4,262.2z"/>
		<path class="st25" d="M355.8,388.6c1-0.8,2.1-0.8,3.1,0C357.9,388.6,356.9,388.6,355.8,388.6z"/>
		<path class="st28" d="M486.9,252.9c0.2,0,0.3,0,0.5,0c0,0.9,0,1.7,0,2.6C486.6,254.7,487,253.8,486.9,252.9z"/>
		<path class="st28" d="M487.4,259.1c-0.2,0-0.3,0-0.5,0c0.1-0.9-0.4-1.9,0.5-2.6C487.4,257.4,487.4,258.2,487.4,259.1z"/>
		<path class="st29" d="M222.2,247.7c0.8,0.5,0.6,1,0,1.6C222.2,248.7,222.2,248.2,222.2,247.7z"/>
		<path class="st22" d="M347.5,123.4c-0.3,0.7-0.7,0.8-1,0C346.8,123.4,347.2,123.4,347.5,123.4z"/>
		<path class="st22" d="M363.1,123.4c-0.3,0.8-0.7,0.7-1,0C362.4,123.4,362.7,123.4,363.1,123.4z"/>
		<path class="st30" d="M222.2,263.3c0.6,0.3,0.7,0.7,0,1C222.2,263.9,222.2,263.6,222.2,263.3z"/>
		<path class="st31" d="M362.6,388.6c0.3-0.7,0.7-0.8,1,0C363.3,388.6,362.9,388.6,362.6,388.6z"/>
	</g>
	<g>
		<ellipse class="st32" cx="256" cy="256" rx="33.8" ry="88.5"/>
	</g>
</g>
</svg>
